<?xml version="1.0" standalone="no"?>
<!DOCTYPE svg PUBLIC "-//W3C//DTD SVG 20010904//EN"
 "http://www.w3.org/TR/2001/REC-SVG-20010904/DTD/svg10.dtd">
<svg version="1.0" xmlns="http://www.w3.org/2000/svg"
 width="1000.000000pt" height="1000.000000pt" viewBox="0 0 1000.000000 1000.000000"
 preserveAspectRatio="xMidYMid meet">
<metadata>
Created by potrace 1.14, written by Peter Selinger 2001-2017
</metadata>
<g transform="translate(0.000000,1000.000000) scale(0.100000,-0.100000)"
fill="#000000" stroke="none">
<path d="M0 5000 l0 -5000 5000 0 5000 0 0 5000 0 5000 -5000 0 -5000 0 0
-5000z m2903 3816 c264 -130 486 -294 748 -555 116 -115 117 -116 288 -203 94
-49 173 -88 175 -88 2 0 -14 34 -36 76 -21 42 -38 82 -36 89 2 8 60 -16 168
-69 91 -44 243 -119 337 -165 206 -100 250 -128 365 -233 l88 -80 53 48 c28
27 67 62 85 79 55 51 141 102 296 178 82 39 233 113 335 163 102 50 188 87
189 82 2 -5 -14 -45 -36 -88 -22 -44 -38 -80 -36 -80 3 0 84 41 181 91 169 86
181 95 263 178 257 264 512 456 763 575 147 71 177 82 177 67 0 -5 7 -17 16
-26 42 -41 201 -309 250 -422 14 -32 34 -76 44 -98 9 -22 27 -71 39 -110 13
-38 26 -79 31 -90 16 -37 63 -229 66 -270 3 -44 3 -43 -32 99 -72 300 -178
539 -361 818 l-63 97 -58 -25 c-112 -50 -248 -122 -325 -172 -77 -51 -178
-121 -187 -132 -3 -3 -27 -24 -55 -45 -72 -57 -123 -104 -267 -245 l-128 -124
-182 -93 c-101 -51 -186 -93 -191 -93 -4 0 11 36 34 81 22 45 38 83 36 86 -3
2 -65 -25 -139 -60 -73 -36 -214 -104 -313 -152 -221 -107 -298 -156 -398
-254 -43 -42 -82 -76 -86 -76 -4 0 -50 39 -101 87 -125 117 -126 118 -675 383
-88 43 -163 79 -167 82 -10 5 0 -17 45 -104 20 -40 34 -73 30 -73 -5 0 -90 42
-190 93 l-182 92 -133 130 c-156 152 -171 165 -303 270 -165 131 -325 229
-520 315 -27 12 -53 24 -56 26 -8 5 -122 -166 -182 -271 -43 -76 -122 -237
-137 -280 -4 -11 -13 -33 -19 -49 -37 -91 -121 -389 -121 -429 0 -10 -4 -16
-8 -13 -8 5 32 179 68 301 46 154 139 365 223 505 63 105 161 250 170 250 5 0
77 -33 160 -74z m231 -435 c-2 -3 -12 3 -22 13 -16 17 -16 18 5 5 12 -7 20
-15 17 -18z m3766 25 c0 -2 -8 -10 -17 -17 -16 -13 -17 -12 -4 4 13 16 21 21
21 13z m-3696 -71 c11 -8 18 -17 15 -19 -2 -2 -20 10 -39 26 -34 29 -15 24 24
-7z m3600 -9 c-16 -13 -31 -22 -33 -20 -2 2 9 15 24 29 16 13 31 22 33 20 2
-2 -9 -15 -24 -29z m-3544 -41 c13 -14 21 -25 18 -25 -2 0 -15 11 -28 25 -13
14 -21 25 -18 25 2 0 15 -11 28 -25z m3799 -348 c-138 -116 -213 -167 -134
-91 53 51 139 115 154 114 4 0 -6 -11 -20 -23z m-4052 -31 c32 -24 74 -61 93
-82 38 -41 23 -32 -55 32 -27 23 -68 53 -89 68 -21 14 -32 26 -23 26 8 0 41
-20 74 -44z m-725 -111 c-2 -14 -8 -23 -12 -20 -10 6 -1 45 10 45 4 0 5 -11 2
-25z m5450 0 c3 -14 2 -25 -2 -25 -4 0 -10 11 -12 25 -3 14 -2 25 2 25 4 0 10
-11 12 -25z m-3947 -75 c25 -33 44 -60 41 -60 -3 0 -26 27 -51 60 -25 33 -44
60 -41 60 3 0 26 -27 51 -60z m2455 20 c-11 -16 -26 -33 -33 -37 -12 -7 0 11
32 50 23 28 24 20 1 -13z m-3965 11 c3 -5 1 -12 -5 -16 -5 -3 -10 1 -10 9 0
18 6 21 15 7z m5465 -7 c0 -8 -5 -12 -10 -9 -6 4 -8 11 -5 16 9 14 15 11 15
-7z m-5470 -39 c0 -8 -2 -15 -4 -15 -2 0 -6 7 -10 15 -3 8 -1 15 4 15 6 0 10
-7 10 -15z m5475 6 c3 -5 1 -12 -5 -16 -5 -3 -10 1 -10 9 0 18 6 21 15 7z
m-1557 -41 c-7 -10 -14 -18 -15 -16 -6 6 9 36 18 36 5 0 4 -9 -3 -20z m-3927
-27 c-9 -16 -10 -14 -11 12 0 21 3 26 11 18 8 -8 8 -16 0 -30z m5488 10 c0
-25 -1 -25 -8 -8 -5 11 -7 23 -4 28 8 14 13 7 12 -20z m-5489 -90 c0 -25 -2
-44 -4 -42 -9 9 -13 89 -5 89 5 0 9 -21 9 -47z m5493 -5 c-7 -61 -13 -60 -13
1 0 29 4 50 9 47 5 -3 6 -25 4 -48z m-5493 -129 c0 -33 -4 -58 -9 -55 -5 4 -8
14 -6 24 2 9 4 34 4 55 2 62 11 42 11 -24z m5487 29 c-3 -8 -6 -5 -6 6 -1 11
2 17 5 13 3 -3 4 -12 1 -19z m7 -52 c2 -15 -1 -29 -5 -32 -5 -3 -9 12 -9 32 0
41 10 41 14 0z m-5491 -69 c3 -8 1 -20 -4 -28 -6 -10 -9 -7 -9 14 0 29 5 35
13 14z m5487 -14 c0 -21 -3 -24 -9 -14 -5 8 -7 20 -4 28 8 21 13 15 13 -14z
m-5484 -70 c-11 -11 -17 4 -9 23 7 18 8 18 11 1 2 -10 1 -21 -2 -24z m5480 12
c1 -8 -2 -15 -7 -15 -5 0 -9 10 -9 22 0 23 12 17 16 -7z m-5473 -40 c4 -8 2
-17 -3 -20 -6 -4 -10 3 -10 14 0 25 6 27 13 6z m5464 -17 c-3 -7 -5 -2 -5 12
0 14 2 19 5 13 2 -7 2 -19 0 -25z m-5457 -33 c0 -8 -4 -15 -10 -15 -5 0 -7 7
-4 15 4 8 8 15 10 15 2 0 4 -7 4 -15z m5455 6 c3 -5 1 -12 -5 -16 -5 -3 -10 1
-10 9 0 18 6 21 15 7z m-2990 -21 c3 -5 1 -10 -4 -10 -6 0 -11 5 -11 10 0 6 2
10 4 10 3 0 8 -4 11 -10z m-2460 -19 c3 -5 1 -12 -5 -16 -5 -3 -10 1 -10 9 0
18 6 21 15 7z m5445 -7 c0 -8 -5 -12 -10 -9 -6 4 -8 11 -5 16 9 14 15 11 15
-7z m-5437 -76 c4 -31 3 -48 -4 -48 -6 0 -8 4 -5 9 3 4 2 21 -3 37 -4 16 -6
35 -3 42 6 19 8 13 15 -40z m5432 43 c3 -5 1 -12 -5 -16 -5 -3 -10 1 -10 9 0
18 6 21 15 7z m-5 -47 c0 -8 -5 -12 -10 -9 -6 4 -8 11 -5 16 9 14 15 11 15 -7z
m-8 -49 c-2 -14 -8 -25 -12 -25 -4 0 -5 11 -2 25 2 14 8 25 12 25 4 0 5 -11 2
-25z m-5402 -9 c0 -3 -4 -8 -10 -11 -5 -3 -10 -1 -10 4 0 6 5 11 10 11 6 0 10
-2 10 -4z m5390 -51 c0 -14 -4 -25 -9 -25 -4 0 -6 11 -3 25 2 14 6 25 8 25 2
0 4 -11 4 -25z m-5369 -98 c9 -45 15 -84 13 -86 -3 -3 -24 71 -30 109 -2 14
-7 36 -10 50 -3 14 -2 21 2 17 5 -4 16 -45 25 -90z m5362 43 c-3 -11 -9 -20
-13 -20 -5 0 -6 9 -3 20 3 11 9 20 13 20 5 0 6 -9 3 -20z m-9 -51 c-3 -5 -14
-44 -24 -87 -25 -105 -76 -246 -113 -312 -38 -70 -107 -167 -107 -151 0 6 17
35 38 64 22 29 53 79 69 112 34 68 98 251 107 310 10 64 18 85 27 79 5 -3 7
-10 3 -15z m-5313 -156 c29 -108 98 -258 151 -334 38 -55 39 -59 33 -113 -4
-31 -11 -56 -14 -56 -4 0 -3 24 2 53 9 51 9 53 -37 121 -26 37 -57 92 -71 122
-35 77 -95 254 -85 254 4 0 13 -21 21 -47z m888 -122 c-13 -10 -58 -45 -100
-77 -42 -33 -98 -77 -123 -98 -26 -21 -49 -37 -52 -34 -8 9 108 111 196 171
79 54 131 79 79 38z m3606 -71 c89 -67 168 -140 149 -140 -5 0 -49 34 -99 76
-49 41 -111 89 -137 107 -49 33 -66 57 -25 36 12 -7 63 -42 112 -79z m590
-229 c3 -5 1 -12 -5 -16 -5 -3 -10 1 -10 9 0 18 6 21 15 7z m14 -118 c7 -48
17 -95 22 -105 6 -12 6 -18 0 -18 -6 0 -13 11 -16 25 -11 56 -14 72 -21 120
-3 28 -8 53 -11 58 -2 4 0 7 5 7 5 0 14 -39 21 -87z m-4924 18 c3 -5 1 -12 -5
-16 -5 -3 -10 1 -10 9 0 18 6 21 15 7z m-8 -56 c-5 -37 -17 -42 -14 -6 1 17 6
31 10 31 4 0 6 -11 4 -25z m-30 -87 c-14 -18 -42 -51 -62 -73 -20 -22 -55 -65
-77 -95 -23 -30 -54 -71 -68 -90 -15 -19 -80 -123 -144 -230 -112 -187 -116
-195 -94 -202 19 -5 18 -6 -10 -7 -39 -1 -48 -21 96 219 126 211 222 344 315
442 20 22 42 49 48 60 6 11 13 17 16 14 3 -3 -6 -20 -20 -38z m5026 -28 c8
-11 30 -37 49 -58 63 -68 168 -222 284 -415 63 -104 111 -193 108 -196 -4 -3
-8 -1 -10 4 -7 18 -219 369 -253 420 -43 62 -89 121 -160 203 -29 34 -49 62
-43 62 6 0 17 -9 25 -20z m-5219 -628 c3 -5 -17 -31 -44 -57 -57 -56 -67 -56
-15 0 19 21 32 42 30 46 -3 4 1 10 7 12 7 3 14 6 15 6 1 1 4 -3 7 -7z m5401
-12 c-3 -4 19 -31 48 -60 65 -65 50 -59 -26 11 -52 48 -67 76 -32 63 8 -4 13
-10 10 -14z m-5485 0 c0 -5 -8 -10 -17 -10 -15 0 -16 2 -3 10 19 12 20 12 20
0z m40 6 c0 -11 -19 -15 -25 -6 -3 5 1 10 9 10 9 0 16 -2 16 -4z m5490 0 c0
-11 -19 -15 -25 -6 -3 5 1 10 9 10 9 0 16 -2 16 -4z m35 -6 c3 -5 -1 -10 -10
-10 -9 0 -13 5 -10 10 3 6 8 10 10 10 2 0 7 -4 10 -10z m-5605 -11 c0 -5 -4
-8 -8 -5 -4 3 -25 1 -45 -4 -20 -4 -39 -4 -42 0 -3 5 12 11 32 13 21 2 44 4
51 5 6 1 12 -3 12 -9z m5680 -1 c0 -4 -13 -6 -30 -5 -16 1 -30 5 -30 9 0 4 13
6 30 5 16 -1 30 -5 30 -9z m76 -10 c6 -10 -13 -9 -46 2 -23 8 -22 8 8 7 19 -1
36 -5 38 -9z m-3710 -90 c13 -26 21 -48 17 -48 -9 0 -73 102 -73 115 0 18 34
-23 56 -67z m1554 8 c-34 -61 -56 -83 -40 -41 15 39 31 68 48 88 28 32 24 9
-8 -47z m-3658 -78 c-96 -99 -132 -139 -242 -268 -8 -9 -26 -32 -40 -51 -14
-18 -37 -47 -51 -63 -39 -47 -171 -252 -216 -336 -38 -72 -80 -175 -102 -250
l-10 -35 3 35 c9 85 97 269 214 447 66 100 207 283 272 354 100 109 225 237
229 234 2 -3 -23 -33 -57 -67z m5795 -45 c55 -60 118 -128 139 -153 21 -25 41
-47 44 -50 3 -3 21 -25 40 -50 19 -25 38 -49 43 -55 98 -128 194 -279 258
-411 32 -66 59 -127 59 -135 1 -7 7 -31 14 -52 8 -20 10 -39 6 -42 -4 -2 -14
24 -23 58 -38 153 -188 408 -381 647 -34 41 -68 82 -76 91 -8 9 -49 54 -91
100 -42 46 -93 101 -112 122 -20 20 -32 37 -27 37 4 0 53 -48 107 -107z
m-4553 -178 c4 -31 3 -46 -3 -40 -11 11 -21 82 -13 90 8 7 9 5 16 -50z m3268
-5 c-2 -22 -9 -40 -14 -40 -6 0 -8 10 -4 23 3 12 6 36 6 52 0 18 3 25 8 18 4
-7 6 -30 4 -53z m-226 -113 c-9 -30 -23 -60 -32 -68 -14 -12 -14 -9 1 26 10
22 22 55 28 72 17 54 20 29 3 -30z m-2795 -56 c8 -20 7 -22 -5 -12 -14 12 -46
93 -46 115 0 10 31 -52 51 -103z m484 -100 c3 -6 -10 -7 -32 -4 -50 8 -55 13
-10 13 20 0 38 -4 42 -9z m1854 4 c-3 -2 -23 -7 -45 -10 -28 -4 -35 -3 -24 4
15 10 78 16 69 6z m-4479 -519 c0 -3 -4 -8 -10 -11 -5 -3 -10 -1 -10 4 0 6 5
11 10 11 6 0 10 -2 10 -4z m-11 -38 c0 -7 -4 -22 -9 -33 -7 -16 -8 -14 -7 12
1 18 5 33 10 33 4 0 7 -6 6 -12z m7077 -13 c2 -33 -11 -33 -14 0 -1 14 2 25 6
25 4 0 8 -11 8 -25z m8 -50 c3 -8 1 -15 -4 -15 -6 0 -10 7 -10 15 0 8 2 15 4
15 2 0 6 -7 10 -15z m-7097 -25 c-1 -16 -5 -30 -9 -30 -4 0 -6 13 -5 30 1 16
5 30 9 30 4 0 6 -13 5 -30z m7103 -16 c0 -8 -5 -12 -10 -9 -6 4 -8 11 -5 16 9
14 15 11 15 -7z m-6585 -14 c4 -6 -6 -10 -22 -9 -25 0 -26 1 -8 9 11 5 21 9
22 9 1 1 5 -3 8 -9z m282 3 c-10 -9 -247 -10 -253 -1 -3 4 54 8 127 8 73 0
129 -3 126 -7z m83 -3 c0 -9 -92 -91 -174 -155 -21 -16 -44 -35 -50 -40 -6 -6
-25 -22 -43 -36 l-32 -27 47 -17 c26 -9 56 -21 67 -26 11 -4 47 -18 80 -30 33
-11 74 -27 90 -34 17 -7 57 -24 90 -38 90 -38 227 -110 455 -240 58 -33 119
-67 135 -76 42 -24 315 -171 405 -219 l75 -39 50 -100 c81 -160 196 -334 293
-443 18 -19 51 -58 74 -87 24 -29 46 -52 49 -53 9 0 19 38 19 72 0 15 5 30 10
33 6 4 10 -8 10 -29 0 -19 -5 -38 -10 -41 -8 -5 -7 -12 2 -22 15 -19 19 -41 7
-49 -5 -3 -10 7 -10 23 -1 17 -3 21 -6 11 -2 -10 -8 -18 -12 -18 -22 0 -321
367 -321 393 0 3 -13 26 -29 49 -34 50 -121 220 -121 235 0 6 -26 24 -57 40
-162 83 -382 204 -667 365 -221 126 -371 196 -593 279 -79 29 -143 56 -143 60
0 7 27 30 188 164 57 47 99 85 92 85 -6 0 -9 4 -6 8 6 10 36 12 36 2z m5346
-12 c-10 -6 -20 -7 -24 -3 -9 8 20 25 31 18 5 -3 2 -10 -7 -15z m311 15 c-10
-9 -247 -10 -247 -1 0 4 57 8 127 8 69 0 123 -3 120 -7z m73 -9 c0 -2 -12 -4
-26 -4 -14 0 -23 4 -20 9 6 8 46 4 46 -5z m-6190 -3 c0 -5 -11 -11 -25 -13
-14 -3 -25 -2 -25 3 0 4 10 10 23 12 12 2 23 5 25 6 1 0 2 -3 2 -8z m40 -1 c0
-5 -7 -7 -15 -4 -8 4 -15 8 -15 10 0 2 7 4 15 4 8 0 15 -4 15 -10z m6190 6 c0
-2 -7 -6 -15 -10 -8 -3 -15 -1 -15 4 0 6 7 10 15 10 8 0 15 -2 15 -4z m60 -12
c0 -2 -11 -4 -25 -4 -14 0 -25 4 -25 9 0 4 11 6 25 3 14 -2 25 -6 25 -8z
m-6720 -10 c0 -8 -5 -12 -10 -9 -6 4 -8 11 -5 16 9 14 15 11 15 -7z m370 7 c0
-5 -21 -14 -47 -20 -62 -15 -58 -13 -203 -60 -133 -44 -150 -47 -150 -30 0 5
4 8 9 5 5 -4 72 14 148 38 76 24 161 51 188 59 28 8 51 15 53 16 1 1 2 -3 2
-8z m6406 -5 c25 -5 282 -86 293 -93 2 -2 2 -5 0 -8 -3 -2 -56 14 -119 35 -63
22 -139 45 -167 51 -29 7 -53 16 -53 21 0 5 4 7 8 4 5 -3 22 -7 38 -10z m339
5 c3 -5 1 -12 -5 -16 -5 -3 -10 1 -10 9 0 18 6 21 15 7z m-846 -22 c13 -11 21
-22 18 -25 -3 -3 -18 6 -34 20 -32 30 -19 35 16 5z m-6274 -18 c3 -5 1 -12 -5
-16 -5 -3 -10 1 -10 9 0 18 6 21 15 7z m7127 -21 c3 -16 1 -30 -3 -30 -4 0 -9
14 -11 30 -3 17 -1 30 3 30 4 0 9 -13 11 -30z m-706 -85 c6 -5 32 -27 58 -49
25 -21 46 -41 46 -46 0 -4 -21 -15 -47 -24 -27 -10 -57 -21 -68 -26 -11 -4
-76 -29 -145 -56 -105 -40 -412 -188 -445 -214 -9 -7 -52 -31 -240 -135 -27
-15 -54 -31 -60 -35 -5 -4 -50 -29 -100 -55 -49 -27 -135 -73 -190 -102 -55
-30 -112 -59 -126 -65 -19 -8 -37 -35 -65 -92 -21 -45 -59 -115 -83 -156 -44
-73 -157 -240 -170 -250 -3 -3 -26 -30 -51 -60 -25 -30 -62 -72 -82 -95 -21
-22 -38 -43 -38 -47 0 -5 -7 -8 -15 -8 -12 0 -10 6 7 23 44 45 94 102 141 162
27 33 54 67 62 77 47 58 148 221 200 321 l60 119 105 55 c103 55 366 199 610
336 169 94 338 179 435 216 44 18 89 36 100 41 11 5 52 20 90 34 115 40 109
34 72 64 -18 15 -34 29 -37 32 -3 3 -27 24 -55 45 -79 64 -85 69 -85 78 0 7
63 -41 116 -88z m-6426 65 c0 -5 -4 -10 -10 -10 -5 0 -10 5 -10 10 0 6 5 10
10 10 6 0 10 -4 10 -10z m1155 -20 c19 -8 19 -9 -2 -9 -12 -1 -25 4 -28 9 -7
12 2 12 30 0z m4841 1 c-3 -5 -16 -11 -28 -14 -22 -6 -22 -5 -4 8 22 17 40 20
32 6z m1141 -14 c-1 -5 -6 -8 -10 -8 -4 1 -14 1 -22 1 -8 0 -15 3 -15 8 0 4
11 7 25 7 14 0 24 -4 22 -8z m-2543 -1482 c6 -49 6 -50 -9 -21 -8 15 -15 42
-15 59 0 47 17 20 24 -38z m-14 -57 c0 -21 -3 -29 -10 -22 -5 5 -7 19 -4 32 9
31 14 27 14 -10z m-6 -70 c4 -17 2 -28 -4 -28 -5 0 -10 14 -10 32 0 36 4 35
14 -4z m-2014 -4 c0 -14 -4 -23 -9 -20 -7 5 -8 23 -2 44 4 12 11 -3 11 -24z
m3 -53 c2 -10 1 -25 -4 -32 -6 -10 -9 -4 -9 19 0 36 5 42 13 13z m2007 -18 c0
-21 -3 -24 -9 -14 -5 8 -7 20 -4 28 8 21 13 15 13 -14z m-2000 -59 c0 -14 -4
-23 -9 -20 -5 3 -7 15 -4 26 7 28 13 25 13 -6z m1993 6 c3 -11 1 -23 -4 -26
-5 -3 -9 6 -9 20 0 31 6 34 13 6z m-3 -72 c0 -23 -3 -29 -9 -19 -8 12 -4 51 5
51 2 0 4 -15 4 -32z m-1987 -3 c4 -8 2 -17 -3 -20 -6 -4 -10 3 -10 14 0 25 6
27 13 6z m7 -66 c0 -16 -4 -28 -9 -25 -8 5 -3 56 5 56 2 0 4 -14 4 -31z m1979
-21 c1 -5 -3 -8 -9 -8 -5 0 -10 12 -9 28 0 24 1 25 9 7 5 -11 9 -23 9 -27z
m-9 -58 c0 -16 -4 -30 -9 -30 -5 0 -8 8 -6 18 2 9 4 23 4 30 2 26 11 11 11
-18z m-1964 -5 c-4 -24 -16 -30 -16 -7 0 12 4 22 9 22 5 0 8 -7 7 -15z m4 -51
c0 -8 -4 -12 -10 -9 -5 3 -10 10 -10 16 0 5 5 9 10 9 6 0 10 -7 10 -16z m1955
4 c-2 -7 -6 -32 -9 -55 -10 -81 -67 -231 -116 -305 -76 -115 -164 -195 -300
-270 -56 -31 -190 -78 -190 -67 0 4 26 15 58 24 94 27 249 122 327 200 54 53
114 139 144 207 33 72 71 206 71 250 0 15 4 28 10 28 5 0 8 -6 5 -12z m-1950
-38 c3 -5 1 -10 -4 -10 -6 0 -11 5 -11 10 0 6 2 10 4 10 3 0 8 -4 11 -10z m5
-30 c0 -5 -5 -10 -11 -10 -5 0 -7 5 -4 10 3 6 8 10 11 10 2 0 4 -4 4 -10z m16
-77 c43 -140 110 -252 203 -342 77 -73 212 -153 314 -185 31 -10 57 -22 57
-27 0 -5 -10 -4 -22 1 -13 5 -54 21 -93 36 -217 84 -374 244 -451 460 -19 52
-34 99 -34 104 0 23 9 6 26 -47z m672 -568 c8 -8 -40 -4 -68 6 -19 6 -14 7 19
4 24 -3 46 -7 49 -10z m630 10 c-3 -3 -18 -8 -34 -11 -22 -3 -25 -2 -14 6 15
10 58 14 48 5z m-603 -15 c3 -5 1 -10 -4 -10 -6 0 -11 5 -11 10 0 6 2 10 4 10
3 0 8 -4 11 -10z m505 0 c0 -5 -15 -9 -32 -9 l-33 1 30 8 c17 4 31 8 33 9 1 0
2 -3 2 -9z m30 0 c0 -5 -2 -10 -4 -10 -3 0 -8 5 -11 10 -3 6 -1 10 4 10 6 0
11 -4 11 -10z m-460 -10 c21 -7 19 -8 -12 -6 -21 1 -41 6 -45 9 -9 9 26 7 57
-3z m360 0 c0 -5 -10 -10 -22 -10 -19 0 -20 2 -8 10 19 13 30 13 30 0z m-298
-12 c-9 -9 -15 -9 -24 0 -9 9 -7 12 12 12 19 0 21 -3 12 -12z m88 -4 c0 -2
-14 -4 -31 -4 -16 0 -28 4 -25 9 5 8 56 3 56 -5z m97 3 c3 -4 -10 -7 -30 -7
-20 0 -37 3 -37 8 0 9 57 8 67 -1z m55 1 c-9 -9 -15 -9 -24 0 -9 9 -7 12 12
12 19 0 21 -3 12 -12z"/>
</g>
</svg>
