<?xml version="1.0" standalone="no"?>
<!DOCTYPE svg PUBLIC "-//W3C//DTD SVG 20010904//EN"
 "http://www.w3.org/TR/2001/REC-SVG-20010904/DTD/svg10.dtd">
<svg version="1.0" xmlns="http://www.w3.org/2000/svg"
 width="910.000000pt" height="910.000000pt" viewBox="0 0 910.000000 910.000000"
 preserveAspectRatio="xMidYMid meet">
<metadata>
Created by potrace 1.14, written by Peter Selinger 2001-2017
</metadata>
<g transform="translate(0.000000,910.000000) scale(0.100000,-0.100000)"
fill="#000000" stroke="none">
<path d="M0 8023 l0 -1078 48 0 c26 0 53 4 59 8 7 4 41 14 75 22 35 8 101 25
148 38 47 13 112 30 145 37 33 7 88 19 122 27 34 8 66 12 71 9 9 -5 174 13
344 39 45 7 49 6 77 -24 35 -37 51 -86 51 -154 0 -96 -47 -145 -158 -163 -42
-7 -94 -13 -115 -13 -22 -1 -55 -8 -74 -17 -27 -13 -42 -15 -67 -7 -21 6 -40
7 -50 1 -12 -7 -24 -3 -43 11 -32 26 -39 26 -70 1 -15 -11 -41 -20 -61 -20
-20 0 -43 -7 -51 -14 -9 -8 -32 -18 -50 -21 -19 -3 -42 -10 -52 -15 -10 -6
-31 -10 -48 -10 -16 0 -33 -4 -36 -10 -3 -5 -21 -10 -40 -10 -19 0 -37 -5 -40
-11 -4 -6 -24 -9 -44 -7 -23 1 -55 -6 -88 -22 l-53 -25 0 -3297 0 -3298 4550
0 4550 0 0 671 0 671 -42 -7 c-24 -3 -51 -9 -60 -11 -27 -8 -22 12 8 35 18 14
31 18 38 11 7 -5 22 -7 34 -3 17 4 22 13 22 36 l0 30 -23 -22 c-13 -12 -30
-19 -38 -16 -9 3 -25 -6 -39 -20 -24 -26 -40 -32 -40 -16 0 5 17 31 38 58 54
68 56 78 23 116 -15 17 -33 41 -39 52 -26 50 29 166 90 189 l28 10 0 383 c0
291 -3 383 -12 383 -9 0 -9 3 0 12 18 18 17 998 0 1017 -10 11 -10 14 0 18 9
4 12 62 12 248 0 134 -3 250 -6 259 -3 9 -12 16 -18 16 -7 0 -26 16 -42 36
-16 20 -53 62 -83 93 -29 31 -64 79 -78 107 -22 50 -63 80 -63 48 0 -23 -20
-16 -32 11 -10 22 -8 35 11 78 13 29 36 89 51 134 16 45 38 94 49 110 30 41
81 206 81 262 0 59 16 76 74 75 22 0 44 5 48 10 4 6 8 242 8 524 0 481 -1 512
-17 513 -15 0 -15 2 2 9 17 7 18 9 2 9 -39 2 -92 43 -114 88 -18 39 -25 41
-43 8 -13 -25 -10 -77 11 -185 6 -30 12 -66 14 -80 2 -14 4 -29 6 -35 1 -5 -2
-19 -6 -29 -6 -13 -4 -23 6 -30 45 -35 86 -219 54 -246 -19 -16 -80 -7 -105
15 -9 8 -19 12 -23 9 -11 -11 -77 6 -77 20 0 8 -19 18 -43 24 -30 8 -47 20
-60 42 -23 38 -39 38 -70 -1 -21 -27 -23 -35 -14 -60 19 -49 -1 -44 -66 18
-34 33 -72 63 -85 67 -12 4 -22 15 -22 25 0 23 51 59 92 65 18 2 52 11 76 20
31 11 71 14 152 12 82 -2 110 0 110 9 0 19 -34 25 -140 25 -159 0 -248 -32
-370 -136 -36 -30 -73 -57 -82 -60 -10 -3 -20 -15 -23 -25 -4 -10 -11 -19 -16
-19 -6 0 -7 5 -4 10 3 6 -4 10 -16 10 -16 0 -20 -5 -16 -20 3 -11 1 -17 -4
-14 -5 3 -21 -4 -36 -16 -30 -23 -43 -14 -43 32 0 25 -23 48 -48 48 -20 0 -29
-43 -16 -79 16 -49 28 -141 17 -141 -4 0 -14 -4 -22 -9 -11 -7 -10 -13 4 -35
10 -14 14 -26 11 -26 -32 0 -181 109 -168 122 10 10 42 -4 78 -35 34 -29 37
-3 3 34 -16 18 -27 39 -24 47 3 7 5 32 5 53 0 22 4 38 9 35 5 -3 14 1 21 9 7
8 20 15 30 15 22 0 41 41 28 63 -5 10 -6 22 -3 27 3 6 -1 7 -9 4 -11 -4 -16 0
-16 11 0 11 5 15 15 11 12 -4 13 -2 3 13 -9 15 -8 25 8 48 35 52 34 57 -15 75
-25 10 -54 18 -64 18 -11 0 -31 6 -45 14 -15 8 -46 19 -69 25 -48 13 -73 34
-73 62 0 13 7 19 21 19 11 0 29 5 39 10 11 6 97 12 192 15 95 3 197 7 226 11
65 7 134 -3 129 -19 -1 -7 -17 -19 -35 -27 -17 -8 -32 -18 -32 -22 0 -11 70
12 124 41 28 16 94 40 146 55 126 35 144 43 132 59 -22 29 -31 77 -19 105 20
46 89 136 129 167 31 25 37 36 38 70 1 22 4 49 6 60 3 11 6 26 6 33 1 6 5 12
8 12 4 0 10 13 13 29 5 25 33 49 44 37 11 -10 23 -145 17 -186 -7 -44 -6 -45
13 -27 11 9 22 15 25 12 3 -3 10 20 17 50 12 52 31 84 31 51 0 -9 5 -16 11
-16 6 0 8 -21 5 -60 -4 -35 -2 -60 3 -60 6 0 12 -17 14 -37 2 -21 4 562 5
1295 l2 1332 -2677 0 c-2252 0 -2674 -2 -2658 -14 17 -13 18 -16 1 -81 -18
-74 -15 -135 10 -156 8 -6 14 -17 14 -23 0 -6 10 -16 21 -21 25 -12 76 -99 84
-145 3 -17 12 -41 20 -53 27 -42 65 -158 65 -200 0 -68 -29 -89 -122 -89 -72
0 -101 8 -173 50 -16 9 -31 20 -33 25 -2 4 -8 7 -14 7 -6 0 -23 12 -38 28 -15
15 -51 47 -81 72 -72 62 -125 108 -168 150 -106 101 -155 125 -258 124 -56 0
-88 -5 -105 -16 -40 -27 -55 -9 -50 59 7 93 31 126 187 257 l30 25 -1577 1
-1578 0 0 -1077z m4531 963 c39 -27 125 -149 140 -199 17 -57 13 -160 -10
-209 -23 -50 -47 -65 -126 -74 -83 -10 -138 17 -165 79 -20 46 -20 55 -10 210
7 101 15 167 23 174 12 12 82 41 102 42 6 1 26 -10 46 -23z m985 -558 c16 -6
38 -19 49 -28 11 -9 54 -23 95 -30 154 -26 350 -106 493 -202 58 -39 80 -56
151 -119 23 -19 65 -54 95 -77 131 -103 189 -170 304 -352 132 -211 226 -406
310 -645 20 -55 52 -140 72 -190 39 -99 61 -209 58 -297 -2 -46 1 -58 15 -62
39 -13 43 -38 32 -198 l-12 -151 -40 -58 c-22 -33 -46 -59 -54 -59 -8 0 -29
-7 -45 -16 l-31 -15 7 129 c7 128 7 130 -15 142 -16 9 -47 10 -103 5 -73 -6
-80 -5 -68 9 23 28 23 70 0 85 -12 7 -18 8 -15 2 5 -7 -10 -9 -44 -5 -38 4
-58 1 -77 -12 -24 -15 -27 -15 -38 -1 -10 14 -12 13 -23 -4 -7 -11 -9 -25 -5
-32 4 -7 8 -25 8 -41 0 -22 8 -32 35 -47 19 -11 48 -19 64 -19 25 0 27 -3 21
-22 -20 -65 -35 -150 -35 -210 l0 -67 -37 -10 c-35 -9 -265 -33 -457 -48 -75
-6 -79 -7 -88 -35 -6 -17 -20 -31 -35 -34 -32 -9 -436 22 -623 46 -186 25
-414 72 -549 115 -58 18 -187 58 -286 89 -216 67 -284 91 -349 122 -64 31 -74
30 -68 -1 4 -24 3 -25 -21 -16 -15 6 -44 19 -65 30 -21 11 -55 22 -75 26 -21
4 -40 11 -43 16 -13 21 -110 61 -148 61 -62 1 -76 -5 -114 -48 l-34 -39 5 43
c7 59 30 90 88 117 l49 22 -24 17 c-33 21 -40 20 -103 -6 -53 -22 -53 -22 -54
-67 0 -47 -6 -106 -18 -175 l-6 -39 -87 -27 c-47 -15 -111 -41 -142 -59 -31
-17 -56 -27 -56 -22 0 18 -56 -2 -80 -29 -41 -45 -65 -53 -95 -34 -33 22 -45
45 -45 86 0 18 -4 49 -10 67 -6 22 -6 39 0 46 5 7 7 15 3 18 -3 4 -1 7 5 7 7
0 12 7 12 16 0 9 9 18 19 21 12 3 17 11 14 19 -4 10 0 13 13 8 11 -3 8 1 -6
10 -19 12 -56 15 -155 16 -146 0 -214 14 -283 57 -88 54 -116 162 -73 285 43
123 114 205 265 306 l88 59 5 89 c3 49 8 94 13 99 4 6 11 30 14 55 13 89 39
160 57 160 9 0 29 15 43 33 58 72 69 77 120 57 21 -8 29 -6 45 12 28 29 76 18
131 -31 25 -22 65 -57 89 -78 24 -21 55 -48 68 -60 13 -13 29 -22 36 -20 7 1
11 -8 10 -23 -1 -15 0 -18 3 -7 3 9 10 15 15 11 11 -7 40 58 90 204 32 94 37
116 26 133 -6 10 -15 19 -19 19 -5 0 -8 7 -8 15 0 8 -6 15 -14 15 -8 0 -21 8
-28 18 -22 29 -79 55 -118 54 -45 -2 -77 23 -72 56 2 13 -3 29 -12 35 -15 11
-15 15 3 47 22 42 41 47 86 26 18 -9 40 -16 48 -16 9 0 19 -5 22 -10 14 -23
164 -87 189 -81 5 1 13 -4 18 -11 6 -9 7 -6 3 8 -3 14 1 26 12 35 16 13 17 12
4 -3 -9 -12 -10 -18 -2 -18 6 0 11 4 11 9 0 17 106 146 168 205 34 32 62 67
62 76 0 17 62 63 102 76 13 4 47 29 77 56 215 196 395 258 831 288 67 4 132
14 155 24 44 18 132 15 181 -6z m1047 15 c-7 -2 -21 -2 -30 0 -10 3 -4 5 12 5
17 0 24 -2 18 -5z m15 -28 c3 -3 0 -5 -6 -5 -7 0 -12 -7 -12 -15 0 -8 -6 -12
-15 -10 -53 17 -52 15 -32 30 17 13 53 13 65 0z m822 -690 c7 -8 18 -15 25
-15 7 0 15 -7 18 -14 4 -10 1 -13 -7 -10 -18 7 -46 -23 -46 -49 0 -18 2 -19
10 -7 6 10 10 11 10 3 0 -12 -17 -37 -49 -70 -7 -7 -19 -35 -25 -61 -10 -36
-17 -48 -34 -50 -17 -3 -25 4 -33 27 -6 17 -15 31 -19 31 -10 0 -50 63 -50 78
0 6 16 19 35 28 19 9 35 23 35 30 0 8 7 14 15 14 8 0 15 5 15 10 0 6 9 10 19
10 12 0 25 12 33 30 14 33 29 38 48 15z m-3870 -25 c15 -36 8 -49 -14 -27 -12
11 -13 16 -3 20 9 3 9 8 -2 20 -7 10 -9 17 -3 17 5 0 15 -14 22 -30z m-844
-101 c9 -19 14 -44 11 -63 -11 -70 -19 -102 -32 -131 -8 -16 -21 -52 -30 -80
-9 -27 -22 -57 -29 -65 -8 -8 -16 -32 -20 -52 -4 -20 -13 -50 -21 -65 -8 -15
-15 -36 -15 -45 0 -10 -6 -17 -12 -15 -8 1 -13 -8 -13 -23 0 -16 -6 -25 -15
-25 -13 0 -15 28 -14 195 1 173 4 202 23 260 22 63 40 87 91 123 36 25 57 21
76 -14z m-262 -1161 c21 -80 -14 -145 -65 -118 -25 14 -24 43 2 97 23 48 53
58 63 21z m5092 -177 c23 -10 54 -36 70 -57 15 -22 43 -53 61 -70 54 -50 47
-81 -56 -246 -63 -104 -103 -138 -159 -138 -79 0 -134 39 -171 120 -24 52 -26
112 -7 190 22 88 33 108 86 160 65 63 106 73 176 41z m-517 -103 c0 -13 -6
-79 -13 -147 -11 -115 -14 -125 -40 -147 -21 -19 -39 -24 -83 -24 l-56 0 9 43
c8 42 10 179 3 227 -4 22 0 25 30 28 19 2 40 10 45 17 12 15 36 22 79 24 22 1
27 -3 26 -21z m-5778 -10 c11 -11 19 -28 19 -36 0 -26 -41 -102 -55 -102 -15
0 -62 53 -78 87 -8 19 -7 27 10 42 11 11 33 21 49 24 16 2 31 5 33 6 2 0 12
-9 22 -21z m-326 -98 c8 -38 -11 -67 -45 -67 -15 0 -38 -9 -50 -21 l-24 -22
-22 21 -22 21 -17 -25 c-13 -20 -28 -27 -68 -32 -67 -8 -103 6 -123 48 -14 30
-14 37 0 70 14 35 18 37 58 37 24 0 49 5 55 11 9 9 20 9 40 1 15 -6 51 -13 79
-16 48 -6 53 -4 69 20 l17 26 23 -22 c13 -13 27 -35 30 -50z m1453 7 c41 -76
48 -86 73 -115 54 -61 57 -115 7 -136 -26 -11 -36 -11 -67 4 -20 10 -53 20
-74 24 -30 6 -41 14 -58 48 -33 65 -15 149 45 214 27 29 42 21 74 -39z m-1028
-154 c77 -29 102 -95 57 -149 -13 -16 -32 -43 -42 -61 -22 -38 -55 -52 -111
-46 -35 3 -42 0 -52 -21 -7 -16 -17 -23 -29 -20 -13 3 -24 -6 -38 -33 -15 -29
-27 -39 -50 -41 -16 -2 -38 -15 -50 -28 -25 -29 -64 -31 -122 -5 -30 14 -43
16 -47 8 -3 -8 -9 -6 -16 6 -13 21 -52 39 -93 44 -24 2 -30 -2 -39 -28 -10
-29 -13 -31 -54 -27 -31 2 -44 -1 -44 -10 0 -7 -11 -17 -24 -22 -13 -5 -27
-13 -30 -18 -3 -5 -17 -7 -31 -4 -15 2 -25 0 -25 -7 0 -20 -22 -12 -52 19 -29
30 -30 50 -3 50 8 0 22 11 31 25 9 14 21 25 27 25 6 0 22 13 36 30 22 24 34
30 76 31 28 1 55 6 60 10 16 12 68 13 95 2 20 -8 31 -6 55 11 16 12 31 24 33
29 2 4 9 7 15 7 6 0 18 6 26 14 9 8 38 21 65 30 26 9 57 21 67 26 10 6 44 11
75 12 41 2 57 7 61 18 13 48 60 121 83 129 35 13 39 13 90 -6z m5580 -154 c0
-6 7 -9 15 -5 19 7 19 2 0 -33 -8 -17 -30 -35 -53 -44 -21 -9 -65 -38 -97 -66
-33 -27 -64 -47 -70 -44 -5 4 -7 2 -2 -2 4 -5 -23 -41 -60 -80 -38 -40 -76
-83 -85 -98 -17 -24 -22 -25 -75 -21 -67 6 -94 17 -112 46 -17 27 -9 32 52 34
73 2 137 31 144 67 3 15 10 30 15 33 11 7 -35 44 -56 44 -9 0 -16 4 -16 9 0 5
-10 13 -22 17 -13 3 -30 13 -39 20 -8 8 -33 16 -55 18 -108 11 -132 18 -136
40 -3 12 1 27 7 32 10 10 88 25 125 25 8 0 56 -1 105 -1 50 0 108 -4 130 -9
28 -7 43 -6 54 2 12 10 14 8 9 -10 -10 -38 13 -46 89 -31 48 9 68 17 68 28 0
8 11 20 25 27 32 15 40 16 40 2z m-2542 -95 c2 -16 12 -37 23 -48 15 -13 19
-25 14 -43 -4 -16 1 -36 15 -59 23 -35 24 -75 3 -82 -8 -2 -13 6 -13 22 0 13
-4 28 -10 31 -5 3 -10 -1 -10 -9 0 -9 -6 -16 -14 -16 -8 0 -21 -7 -29 -15 -13
-12 -18 -12 -40 8 -19 16 -25 32 -25 59 0 21 -9 53 -21 71 -23 38 -26 68 -10
98 26 49 109 36 117 -17z m548 -40 c30 -14 54 -32 54 -40 0 -17 12 -18 27 -3
8 8 14 5 23 -11 7 -13 17 -19 26 -16 8 3 17 -1 20 -9 4 -8 16 -15 28 -15 11 0
35 -9 51 -20 17 -11 47 -20 68 -20 40 0 48 -13 20 -29 -16 -9 -15 -10 8 -11
14 0 31 -6 38 -12 10 -9 12 -9 7 -1 -3 6 -2 14 3 17 5 3 11 -7 14 -23 3 -16
21 -50 39 -77 21 -31 31 -58 29 -76 -2 -19 4 -31 18 -40 12 -7 21 -23 21 -36
0 -14 8 -26 23 -31 26 -10 58 -45 74 -81 19 -40 25 -87 14 -95 -6 -3 -11 -17
-11 -30 0 -17 -8 -26 -31 -34 -17 -6 -28 -15 -24 -21 3 -6 10 -8 15 -5 14 9
22 -14 15 -45 -4 -17 -12 -30 -20 -30 -7 0 -28 -18 -48 -40 l-34 -40 -33 16
c-42 22 -54 8 -32 -38 17 -37 52 -53 52 -24 0 21 19 30 35 16 10 -8 19 -8 34
-1 23 13 42 -6 20 -20 -10 -6 -6 -11 14 -18 16 -6 27 -18 27 -29 0 -9 7 -28
16 -40 8 -12 11 -22 6 -22 -5 0 -9 -20 -9 -44 0 -36 5 -47 23 -56 13 -7 20
-19 17 -26 -3 -8 1 -14 11 -14 8 0 30 -13 48 -29 18 -16 77 -54 130 -86 125
-72 296 -124 415 -124 43 0 119 -8 168 -17 64 -12 137 -16 252 -15 104 1 195
-4 255 -14 135 -22 132 -22 125 25 -7 51 8 51 30 0 16 -37 21 -40 68 -47 27
-4 56 -7 63 -7 6 1 12 -1 12 -6 0 -4 12 -12 27 -19 26 -12 42 -3 43 22 0 12
30 8 30 -4 0 -6 9 -9 20 -6 10 3 21 0 23 -7 2 -6 8 -8 12 -4 4 4 3 13 -3 21
-6 7 -7 18 -3 26 7 11 13 8 26 -12 9 -14 30 -30 47 -36 36 -13 58 -14 43 -3
-5 4 -16 15 -23 24 -28 35 44 11 157 -52 72 -41 120 -74 138 -99 15 -20 57
-72 94 -116 36 -44 69 -90 73 -102 16 -50 -18 -27 -91 63 -102 126 -127 155
-114 129 5 -11 50 -68 100 -127 106 -126 121 -162 103 -246 -7 -32 -23 -78
-36 -103 -17 -34 -21 -51 -14 -63 19 -33 -1 -122 -39 -177 -43 -62 -57 -102
-49 -134 4 -17 11 -23 23 -18 13 5 15 2 10 -18 -24 -99 -39 -220 -40 -329 -2
-127 -2 -129 -30 -150 -22 -18 -25 -25 -16 -36 9 -11 6 -19 -15 -37 -29 -25
-33 -37 -12 -37 8 0 17 -13 21 -29 l6 -28 39 19 c45 23 67 17 43 -12 -9 -10
-22 -32 -29 -49 -12 -27 -11 -31 12 -46 24 -16 26 -15 47 12 12 15 21 33 19
39 -1 6 21 0 50 -14 28 -13 79 -28 114 -32 34 -4 68 -12 76 -16 7 -5 18 -9 24
-10 6 -1 21 -5 32 -8 15 -5 27 1 45 20 29 31 36 62 43 187 4 88 20 137 44 137
6 0 10 -17 11 -37 1 -21 2 -45 3 -53 2 -8 3 -32 4 -54 2 -27 6 -37 16 -33 11
4 11 -2 -1 -36 -18 -51 -11 -128 17 -192 7 -16 13 -46 14 -65 1 -22 7 -35 16
-35 7 0 15 -6 18 -12 5 -17 -35 -17 -72 0 -26 11 -27 15 -22 60 5 44 3 49 -20
57 -20 8 -29 5 -54 -22 -27 -28 -35 -47 -31 -71 1 -4 -11 -12 -26 -18 -16 -6
-35 -15 -44 -19 -15 -8 -135 -40 -147 -40 -4 0 8 14 26 30 35 30 35 50 1 50
-10 0 -19 5 -19 10 0 6 -8 10 -17 9 -11 0 -13 -3 -5 -6 17 -7 15 -23 -3 -23
-7 0 -19 8 -24 18 -9 14 -10 13 -11 -10 0 -16 4 -28 10 -28 21 0 -8 -44 -34
-51 -23 -7 -28 -4 -41 27 -8 19 -19 34 -24 34 -6 0 -8 6 -5 14 9 22 -9 26 -44
9 -20 -10 -31 -21 -28 -29 3 -8 0 -14 -7 -14 -9 0 -12 -24 -11 -83 0 -78 -1
-84 -30 -115 -16 -17 -35 -32 -42 -32 -7 0 -10 -8 -7 -19 4 -16 1 -19 -17 -14
-12 3 -19 11 -16 19 3 8 -6 20 -22 30 -15 8 -19 13 -9 10 9 -3 17 -1 17 4 0 5
-8 11 -17 13 -10 3 3 3 30 0 36 -3 47 0 47 11 0 12 -80 53 -89 44 -4 -3 -23
39 -26 57 0 6 -4 26 -8 45 -4 19 -9 51 -11 70 -3 19 -10 36 -15 38 -17 6 -13
27 7 45 13 12 17 26 14 47 -5 35 -19 47 -35 31 -20 -20 -45 -12 -69 22 -12 17
-31 41 -40 52 -10 10 -16 25 -14 32 3 7 -2 13 -10 13 -8 0 -12 5 -9 10 3 6 1
10 -4 10 -6 0 -11 11 -11 25 0 31 18 32 55 3 17 -13 41 -22 62 -21 33 1 39 -7
33 -46 -3 -23 10 -61 20 -61 6 0 10 23 10 51 0 47 2 52 30 62 29 11 41 27 19
27 -32 0 30 219 72 253 13 10 28 26 33 36 6 10 21 33 33 52 26 38 30 82 9 101
-11 11 -10 20 5 56 29 66 25 78 -23 90 -26 7 -48 7 -59 1 -25 -13 -25 -13 -22
24 5 64 16 98 34 107 23 13 34 -3 19 -29 -18 -34 9 -35 41 -2 16 17 29 34 29
38 0 3 7 14 15 23 8 9 17 27 19 41 2 13 5 26 6 29 2 3 2 9 1 14 -1 5 4 13 11
17 9 6 9 9 1 9 -6 0 -36 -22 -66 -50 -30 -27 -59 -50 -64 -50 -5 0 -18 -8 -29
-18 -32 -30 -169 -91 -239 -107 -75 -18 -165 -18 -165 0 0 21 -22 35 -41 25
-12 -7 -20 -6 -24 0 -4 6 -1 9 6 8 6 -2 14 3 17 11 3 9 0 11 -8 6 -9 -6 -12
-4 -8 7 4 8 -2 20 -14 27 -18 11 -18 10 -8 -9 6 -12 9 -24 7 -27 -3 -2 -8 5
-12 16 -3 12 -10 19 -15 16 -4 -3 -6 4 -3 15 4 14 0 20 -11 20 -10 0 -15 4
-12 9 3 5 -7 9 -22 9 -71 1 -111 10 -146 31 -21 13 -41 20 -46 15 -13 -14 -77
-131 -120 -220 -22 -45 -58 -112 -80 -148 -22 -36 -40 -69 -40 -74 0 -21 -50
-52 -92 -58 -76 -11 -158 44 -158 105 0 34 68 225 114 321 20 41 36 84 36 96
0 25 -15 29 -160 40 l-85 6 -103 -117 c-56 -65 -102 -124 -102 -131 0 -8 15
-14 36 -16 36 -3 37 -4 71 -93 23 -61 46 -102 71 -127 20 -21 31 -38 24 -38
-8 0 -9 -7 -2 -25 5 -14 6 -25 2 -25 -5 0 -5 -25 -2 -56 3 -30 3 -57 -2 -60
-4 -3 -8 -16 -8 -30 0 -13 -9 -49 -19 -79 -13 -36 -16 -57 -9 -61 6 -4 5 -10
-3 -15 -12 -8 -11 -11 1 -19 12 -8 13 -10 1 -10 -8 0 -11 -3 -8 -7 7 -6 -51
-38 -143 -78 -25 -11 -67 -35 -95 -54 -75 -50 -232 -141 -243 -141 -6 0 -14
10 -18 23 -3 12 -33 83 -65 157 -77 181 -77 179 -40 231 37 50 61 125 61 189
0 46 1 47 28 43 26 -4 26 -4 8 11 -11 9 -29 16 -40 16 -30 0 -66 39 -66 72 0
33 17 69 70 148 20 30 44 73 54 95 10 22 44 73 75 114 122 160 140 187 140
201 0 14 -75 80 -99 88 -6 2 -24 -11 -40 -28 -41 -43 -179 -215 -210 -261 -37
-55 -113 -157 -160 -216 -28 -35 -44 -66 -47 -93 -5 -33 -8 -38 -19 -29 -11 9
-14 8 -14 -5 0 -9 -5 -16 -12 -16 -6 0 -2 -10 10 -23 15 -15 19 -30 15 -46 -6
-22 -13 -24 -62 -10 -27 8 -217 -327 -330 -583 -110 -250 -181 -509 -188 -693
-5 -117 -13 -155 -33 -155 -15 0 -12 134 5 230 50 287 132 545 238 755 153
304 194 381 228 420 9 11 31 47 49 80 18 33 39 68 47 77 19 21 9 38 -22 38
-29 0 -145 95 -145 120 0 9 7 34 15 53 16 39 151 263 209 347 23 34 34 59 31
71 -5 14 -2 17 8 13 10 -3 29 19 61 74 25 43 46 83 46 89 0 11 -25 23 -107 49
-41 12 -53 21 -53 36 0 18 -2 19 -17 7 -11 -10 -14 -10 -9 -1 4 7 2 12 -7 12
-10 0 -13 7 -10 19 3 10 0 22 -6 25 -16 11 -13 24 7 30 23 8 26 45 4 53 -9 3
-37 22 -62 42 -38 31 -52 36 -100 37 -85 2 -88 3 -104 20 -9 8 -25 17 -37 19
-24 5 -40 23 -70 79 -18 34 -19 44 -9 85 8 34 8 55 0 76 -14 37 4 83 37 96 20
7 158 2 385 -14 26 -2 45 0 42 5 -3 4 -20 8 -39 8 -41 0 -67 9 -59 21 3 5 -6
9 -20 9 -14 0 -26 5 -26 10 0 6 -6 10 -14 10 -8 0 -17 11 -20 24 -10 39 -34
58 -57 46 -16 -9 -21 -7 -29 15 -6 15 -10 31 -10 37 0 21 -43 69 -57 64 -9 -4
-13 -1 -9 6 3 7 9 21 12 31 4 9 11 17 16 17 5 0 6 10 2 23 -9 31 -14 34 -25
17 -8 -13 -10 -13 -19 0 -14 22 -12 30 5 24 20 -8 19 5 -2 28 -15 17 -15 19 2
38 18 19 17 20 -7 20 -23 0 -63 30 -42 30 5 0 1 5 -9 11 -14 8 -16 14 -6 25 7
9 8 14 1 14 -6 0 -12 15 -14 33 -2 25 -11 36 -41 52 -21 11 -35 25 -32 33 2 7
-4 18 -15 24 -21 13 -26 37 -11 54 17 18 20 59 6 78 -13 16 -12 22 6 44 l20
25 -26 27 c-14 14 -25 36 -25 47 0 15 -7 23 -22 25 -13 2 -22 9 -22 18 5 45
16 84 30 97 13 14 17 13 29 -3 13 -18 14 -18 15 -1 0 10 -7 34 -15 54 -8 19
-15 37 -15 39 0 12 48 1 96 -22z m-786 -43 c28 -32 68 -66 90 -76 22 -10 40
-22 40 -27 0 -10 -87 -11 -92 0 -1 4 -26 22 -54 40 -50 32 -64 53 -64 100 0
37 26 25 80 -37z m-955 9 c-3 -5 -11 -10 -16 -10 -6 0 -7 5 -4 10 3 6 11 10
16 10 6 0 7 -4 4 -10z m1295 -26 c0 -17 -22 -14 -28 4 -2 7 3 12 12 12 9 0 16
-7 16 -16z m-1355 -13 c-3 -6 -11 -11 -17 -11 -6 0 -6 6 2 15 14 17 26 13 15
-4z m81 -41 c0 0 1 -16 2 -35 1 -24 -4 -38 -14 -42 -12 -5 -13 -7 0 -17 7 -6
16 -36 20 -67 5 -51 4 -57 -14 -62 -12 -3 -20 -14 -20 -26 0 -26 15 -27 29 -3
11 20 12 18 31 -68 6 -30 18 -86 27 -125 8 -38 16 -79 19 -90 2 -11 11 -53 20
-94 15 -68 15 -76 0 -86 -9 -7 -12 -15 -8 -19 4 -5 0 -7 -8 -6 -32 5 -45 -1
-23 -10 31 -12 40 -65 16 -92 l-18 -20 39 16 c25 10 43 13 49 7 14 -14 -2 -31
-49 -52 -43 -19 -78 -51 -38 -35 38 16 49 17 66 4 28 -22 33 -63 10 -86 -18
-18 -19 -22 -6 -33 8 -6 14 -18 14 -25 0 -8 4 -14 10 -14 6 0 5 10 -2 25 -13
28 -6 40 16 32 16 -6 31 -61 21 -77 -8 -12 -85 -53 -91 -48 -14 14 -30 76 -24
93 5 14 1 22 -14 30 -13 7 -22 22 -24 42 -2 17 -10 37 -18 43 -17 15 -18 47
-1 53 7 3 4 6 -6 6 -20 1 -51 64 -44 90 2 9 -2 22 -10 29 -11 10 -13 9 -13 -5
0 -14 -8 -19 -32 -18 -28 0 -33 4 -39 34 -4 18 -11 36 -16 40 -26 19 -108 262
-122 363 -17 122 28 284 81 291 7 2 24 10 38 20 13 9 28 17 33 17 4 0 17 9 28
19 17 15 27 17 52 10 18 -5 32 -9 33 -9z m-1787 3 c22 -6 23 -9 17 -57 -3 -28
-12 -56 -21 -62 -8 -6 -15 -16 -15 -23 0 -17 -9 -13 -41 16 -30 29 -35 55 -20
97 8 21 19 28 51 35 3 0 16 -2 29 -6z m4171 -89 c0 -2 -9 -4 -21 -4 -11 0 -18
4 -14 10 5 8 35 3 35 -6z m-1460 -26 c0 -4 7 -8 15 -8 8 0 15 -7 15 -16 0 -8
5 -12 10 -9 6 3 10 3 10 -2 0 -4 11 -9 25 -9 22 -2 64 -37 65 -56 0 -11 -44 5
-63 23 -10 9 -31 19 -46 22 -16 3 -36 13 -45 22 -9 9 -28 17 -43 18 -48 4 -38
25 11 25 26 -1 46 -5 46 -10z m-162 -45 c6 -19 6 -34 -2 -45 -12 -20 -2 -35
29 -40 11 -1 23 -7 26 -11 3 -5 15 -10 25 -11 13 -2 19 -11 19 -29 1 -15 11
-36 22 -47 12 -11 29 -37 38 -57 9 -21 21 -46 26 -55 5 -10 9 -28 9 -41 0 -13
5 -28 11 -34 17 -17 1 -74 -19 -71 -11 2 -16 -3 -14 -14 2 -11 -5 -18 -20 -20
-16 -2 -24 -11 -26 -27 -4 -25 12 -90 29 -123 5 -10 5 -19 -1 -23 -6 -4 -13 1
-16 9 -3 9 -10 16 -14 16 -11 0 -6 -45 7 -62 7 -9 7 -21 -1 -40 -10 -24 -13
-25 -31 -12 -25 19 -32 18 -38 -7 -4 -15 1 -22 19 -29 13 -5 24 -16 24 -24 0
-7 7 -19 15 -26 21 -18 19 -48 -5 -55 -27 -9 -25 -27 3 -25 37 3 53 0 42 -8
-15 -11 -15 -42 1 -42 8 0 11 -6 8 -15 -4 -8 -12 -15 -20 -15 -8 0 -14 -4 -14
-9 0 -4 12 -6 26 -3 19 3 26 0 31 -16 2 -11 16 -23 29 -26 40 -10 24 -34 -18
-27 -12 2 -9 -12 6 -31 18 -24 29 -23 16 2 -9 18 -8 20 15 20 14 0 25 -4 25
-10 0 -5 7 -10 16 -10 9 0 23 -9 32 -20 10 -12 35 -23 57 -27 22 -3 45 -11 50
-18 6 -6 17 -14 25 -18 10 -4 8 -6 -7 -6 -34 -1 -28 -18 9 -26 21 -5 33 -4 36
4 2 7 14 1 28 -14 28 -30 29 -35 10 -35 -10 0 -12 -7 -8 -22 5 -20 2 -21 -36
-16 -29 4 -42 2 -46 -8 -3 -8 -15 -14 -26 -14 -12 0 -18 -4 -15 -10 9 -14 -91
-13 -134 3 -20 6 -42 18 -50 25 -8 8 -31 24 -51 37 -20 13 -52 42 -70 65 l-32
41 28 -6 c24 -5 22 -3 -8 11 -21 9 -36 20 -33 24 3 4 -4 10 -14 13 -12 3 -22
-1 -26 -10 -5 -14 -8 -13 -25 2 -11 10 -18 20 -16 23 8 8 -100 91 -128 98 -17
4 -26 13 -26 25 0 14 -7 19 -30 19 -17 0 -33 7 -38 16 -5 10 -21 17 -35 18
-29 1 -77 56 -77 88 0 10 -4 18 -8 18 -4 0 -19 21 -33 47 -13 25 -30 57 -37
70 -8 15 -10 29 -5 36 13 16 10 40 -4 44 -7 3 -10 -4 -7 -19 5 -22 5 -22 -10
2 -10 18 -11 29 -4 37 7 9 7 17 -2 28 -7 8 -9 15 -5 15 4 0 13 -7 20 -16 20
-28 18 73 -4 149 -20 67 -19 103 2 90 6 -4 7 -1 2 6 -4 7 -3 23 3 34 6 12 13
29 15 38 6 19 65 52 77 44 12 -8 129 22 147 37 9 7 35 30 57 50 25 23 55 39
78 43 37 7 48 18 28 30 -15 9 -12 25 5 25 8 0 15 5 15 10 0 12 22 39 32 40 3
0 10 -12 16 -27z m4202 -24 c0 -5 -4 -9 -10 -9 -5 0 -10 7 -10 16 0 8 5 12 10
9 6 -3 10 -10 10 -16z m-5505 -33 c18 -13 17 -15 -13 -57 -20 -27 -32 -55 -32
-75 0 -38 -16 -85 -33 -96 -9 -6 -9 -8 1 -8 6 0 12 -8 12 -18 0 -23 -86 -47
-136 -37 -51 9 -136 -12 -186 -45 -49 -34 -58 -36 -58 -15 0 8 -4 15 -10 15
-5 0 -10 -4 -10 -10 0 -5 -7 -10 -15 -10 -9 0 -15 9 -15 21 0 12 -8 23 -20 26
-11 3 -20 9 -20 14 0 5 -4 9 -9 9 -5 0 -28 18 -52 40 -24 22 -51 40 -60 40
-23 0 -49 32 -31 37 6 3 10 9 6 14 -3 5 2 9 10 9 9 0 16 3 16 8 0 4 14 8 31 8
17 1 34 6 38 12 6 9 37 21 136 51 17 5 95 24 175 41 80 18 146 33 148 34 10
10 111 4 127 -8z m5535 -7 c0 -5 -4 -9 -10 -9 -5 0 -10 7 -10 16 0 8 5 12 10
9 6 -3 10 -10 10 -16z m-3747 -46 c-3 -18 -9 -33 -14 -33 -5 0 -9 3 -9 8 0 4
-3 17 -6 29 -4 15 -1 22 13 25 10 2 19 4 19 4 1 -1 -1 -16 -3 -33z m3811 -39
c9 -25 2 -26 -17 -4 -13 16 -14 20 -3 20 8 0 17 -7 20 -16z m-5604 -72 c0 -10
-6 -26 -13 -36 -12 -16 -13 -14 -9 18 4 37 22 51 22 18z m-895 -95 c5 -1 13
-6 17 -11 4 -6 13 -4 23 4 25 21 135 17 175 -6 47 -28 93 -101 92 -146 -2 -30
4 -42 33 -67 43 -38 44 -51 2 -75 -73 -44 -102 -53 -157 -49 -50 4 -61 1 -117
-34 -33 -21 -82 -57 -108 -80 -46 -39 -259 -162 -291 -167 -9 -1 -19 -7 -22
-13 -4 -5 -18 -16 -31 -23 -21 -11 -23 -10 -18 4 3 8 1 18 -5 22 -7 4 -8 3 -4
-4 4 -7 2 -12 -3 -12 -19 0 -12 30 13 56 20 22 23 34 20 86 -1 33 -7 65 -13
71 -12 12 -15 57 -3 57 4 0 14 15 21 33 19 42 38 60 56 53 12 -4 13 -2 5 13
-7 14 -7 20 1 23 6 2 12 16 12 31 2 21 6 25 20 21 9 -3 17 -1 17 4 0 5 11 12
25 14 14 3 25 1 25 -3 0 -5 -4 -9 -10 -9 -5 0 -10 -4 -10 -8 0 -4 16 -6 35 -4
33 4 35 3 35 -26 0 -18 7 -35 16 -40 18 -10 29 -72 13 -72 -6 0 -8 -9 -4 -21
6 -16 4 -20 -6 -14 -8 4 -7 0 3 -10 17 -19 38 -13 38 11 0 8 10 14 23 14 14 0
18 3 9 8 -9 6 -4 14 18 30 44 33 48 77 14 160 -15 37 -31 72 -36 78 -4 6 -11
32 -14 57 -7 50 5 60 56 50 13 -2 29 -5 35 -6z m5530 -37 c21 -17 45 -75 45
-107 0 -88 -47 -143 -120 -143 -52 0 -82 20 -107 70 -25 49 -29 94 -10 126 18
32 69 71 97 76 29 4 76 -6 95 -22z m-4712 -44 c-26 -32 -63 -48 -63 -27 0 10
-43 28 -80 34 -14 2 4 5 40 7 53 2 99 9 128 19 2 0 -9 -14 -25 -33z m-233 -4
c0 -4 -5 -13 -12 -20 -9 -9 -9 -12 3 -12 20 0 44 -44 36 -64 -4 -9 -1 -16 6
-16 7 0 28 -30 47 -67 19 -38 37 -70 40 -73 6 -6 40 -79 40 -85 0 -3 -9 0 -20
7 -11 7 -18 19 -15 27 4 9 0 11 -11 7 -10 -4 -15 -1 -13 12 3 27 -19 72 -36
72 -12 0 -15 6 -10 20 5 16 2 20 -15 20 -12 0 -18 5 -15 10 3 6 1 10 -5 10 -7
0 -10 7 -6 15 3 8 1 15 -4 15 -6 0 -10 -5 -10 -11 0 -8 -6 -7 -17 2 -11 10
-14 10 -9 2 4 -8 2 -13 -6 -13 -7 1 -23 22 -35 47 l-22 46 31 29 c29 27 58 37
58 20z m4275 -130 c-3 -7 2 -24 11 -38 9 -13 14 -35 12 -49 -3 -14 0 -25 6
-26 6 0 2 -4 -9 -8 -11 -5 -28 -5 -37 0 -22 12 -46 2 -53 -21 -3 -10 -13 -17
-22 -16 -18 3 -36 52 -26 70 3 6 1 6 -7 -1 -15 -14 -7 -55 15 -77 19 -19 19
-32 0 -40 -11 -4 -15 1 -15 19 0 27 -18 33 -38 13 -9 -9 -12 -7 -12 9 0 12 -4
25 -10 28 -17 11 -11 54 10 75 12 12 18 25 15 29 -2 5 7 12 22 16 33 8 84 49
102 83 l13 25 14 -39 c8 -21 12 -45 9 -52z m-4347 30 c2 -7 -2 -10 -12 -6 -9
3 -16 11 -16 16 0 13 23 5 28 -10z m4375 -42 c3 -11 1 -18 -4 -14 -5 3 -9 12
-9 20 0 20 7 17 13 -6z m69 -77 c25 -27 63 -75 84 -108 20 -33 50 -75 65 -92
43 -50 61 -128 48 -217 -13 -96 -24 -82 -24 29 0 70 -4 108 -12 117 -10 10
-13 1 -13 -42 0 -135 -68 -264 -86 -162 -14 87 -35 165 -50 190 l-15 27 5 -25
c7 -32 -9 -92 -17 -70 -18 47 -23 119 -10 144 8 15 12 35 9 44 -3 9 -8 51 -12
92 -3 41 -12 82 -20 91 -8 8 -14 19 -14 22 0 16 19 4 62 -40z m-4541 -14 c13
-7 18 -16 14 -26 -7 -21 42 -123 60 -123 7 0 21 -12 30 -27 10 -16 32 -41 49
-58 53 -51 110 -128 140 -187 15 -31 34 -62 42 -69 8 -6 14 -24 14 -40 0 -15
4 -30 9 -33 5 -3 7 -15 4 -26 -4 -14 1 -22 18 -28 23 -9 23 -9 -5 -14 -22 -4
-30 -1 -33 13 -3 11 -11 19 -18 19 -8 0 -10 9 -7 25 4 22 1 25 -27 25 -17 0
-31 -4 -31 -8 0 -5 -11 -14 -25 -20 -19 -9 -24 -9 -22 1 1 6 -8 12 -20 12 -11
0 -25 3 -29 8 -14 14 -81 8 -81 -8 0 -8 4 -12 8 -9 4 2 10 0 14 -5 3 -6 -7
-17 -22 -25 -26 -13 -27 -15 -8 -21 40 -13 65 -29 65 -39 0 -6 -11 -22 -25
-34 l-25 -24 -35 22 c-19 12 -33 26 -30 30 3 5 -6 17 -20 26 -14 9 -25 22 -25
29 0 7 -12 16 -26 19 -36 9 -56 30 -42 44 8 8 3 14 -18 22 -28 11 -28 12 -9
26 17 13 18 16 5 24 -8 5 -18 10 -23 10 -4 0 -14 18 -23 40 -9 21 -24 42 -35
45 -10 4 -19 11 -19 16 0 5 -13 9 -30 9 -18 0 -30 -5 -30 -13 0 -7 -9 -21 -21
-30 -12 -11 -18 -25 -15 -34 9 -23 -12 -90 -30 -97 -15 -6 -15 -8 0 -25 17
-18 16 -19 -23 -18 -25 1 -41 7 -41 15 0 6 5 12 11 12 5 0 7 5 4 10 -8 12 -42
13 -49 1 -7 -10 35 -91 47 -91 5 0 5 5 2 10 -3 6 1 10 9 10 9 0 17 -6 17 -12
1 -7 2 -20 3 -28 0 -8 7 -14 13 -13 7 2 15 -8 19 -22 3 -14 10 -25 15 -25 13
0 11 -34 -2 -47 -6 -6 -11 -33 -11 -59 0 -27 -5 -61 -11 -75 -10 -24 -12 -24
-28 -10 -35 31 -48 41 -58 41 -5 0 -19 16 -31 35 -12 19 -40 51 -63 70 -29 25
-45 48 -52 77 -8 33 -18 45 -48 61 -24 12 -36 25 -33 33 3 9 -1 14 -12 14 -9
0 -26 7 -36 15 -11 8 -27 15 -37 15 -17 0 -99 60 -83 60 5 0 0 7 -10 15 -14
11 -23 12 -33 4 -10 -9 -13 -8 -13 5 0 8 14 23 32 32 17 9 40 25 52 35 11 11
26 17 34 14 7 -2 11 -1 8 3 -8 13 30 40 123 90 102 54 128 71 201 133 90 77
125 93 200 91 56 -1 74 4 130 33 77 40 67 37 91 24z m979 -30 c0 -5 -4 -9 -8
-9 -5 0 -9 7 -9 15 0 8 4 12 9 9 4 -3 8 -9 8 -15z m-2006 -9 c14 0 29 -40 52
-143 11 -54 22 -75 47 -98 27 -25 30 -32 20 -48 -10 -16 -9 -21 5 -26 14 -7
13 -9 -8 -15 l-25 -7 25 -12 c24 -11 24 -11 -8 -8 -22 3 -36 -1 -39 -10 -7
-18 -20 -16 -73 8 l-45 20 24 14 25 13 -34 17 c-41 21 -70 55 -62 73 2 8 -1
37 -8 66 -11 47 -10 56 6 87 10 19 17 37 16 42 -1 4 5 7 13 7 9 0 18 7 22 16
3 8 12 13 20 10 8 -3 20 -6 27 -6z m5519 -61 c-5 -18 -39 -49 -54 -49 -4 0 -9
13 -11 29 -2 17 -1 28 4 25 4 -3 8 2 8 10 0 17 30 26 46 14 7 -5 10 -18 7 -29z
m-173 -43 c0 -9 -30 -14 -35 -6 -4 6 3 10 14 10 12 0 21 -2 21 -4z m-3245
-179 c14 -30 25 -59 25 -66 0 -12 21 -60 66 -155 13 -27 21 -52 19 -57 -3 -4
0 -9 7 -11 6 -2 8 -9 4 -16 -9 -15 -56 14 -56 35 0 8 -11 38 -24 66 -38 85
-48 115 -41 126 3 6 1 11 -5 11 -7 0 -10 7 -6 15 3 9 0 15 -8 15 -18 0 -37 65
-23 79 15 15 14 17 42 -42z m215 -8 c0 -6 -20 -19 -45 -30 -25 -11 -54 -30
-65 -41 -15 -16 -23 -19 -31 -11 -23 23 -4 47 61 74 63 27 80 28 80 8z m2931
-52 c-6 -15 -15 -27 -21 -27 -14 0 -13 38 3 55 18 20 29 2 18 -28z m-5066 13
c-3 -5 -14 -10 -23 -10 -15 0 -15 2 -2 10 20 13 33 13 25 0z m2155 -19 c0 -5
-7 -14 -15 -21 -8 -7 -12 -17 -8 -23 4 -6 -3 -8 -21 -3 -20 5 -32 1 -52 -19
-32 -32 -44 -32 -44 1 0 19 8 28 35 40 19 8 35 19 35 24 0 6 16 10 35 10 19 0
35 -4 35 -9z m765 -21 c3 -5 1 -10 -4 -10 -6 0 -11 5 -11 10 0 6 2 10 4 10 3
0 8 -4 11 -10z m-3001 -15 c-4 -9 -18 -15 -38 -14 l-31 0 35 13 c19 8 36 14
37 15 1 0 0 -6 -3 -14z m7626 -9 c0 -7 -8 -31 -17 -52 -15 -35 -17 -36 -21
-16 -4 27 16 82 29 82 5 0 9 -6 9 -14z m-4585 -16 c-3 -5 -12 -7 -20 -3 -21 7
-19 13 6 13 11 0 18 -4 14 -10z m-795 -43 c14 -27 14 -29 -13 -53 -51 -44
-107 -26 -107 35 0 53 93 67 120 18z m840 13 c0 -5 -7 -7 -15 -4 -8 4 -15 8
-15 10 0 2 7 4 15 4 8 0 15 -4 15 -10z m2910 -69 c0 -5 -7 -12 -16 -15 -14 -5
-15 -4 -4 9 14 17 20 19 20 6z m1659 -212 c1 -21 -5 -28 -25 -32 -25 -4 -26
-3 -21 30 3 19 12 42 19 50 11 13 13 13 19 -4 4 -10 8 -30 8 -44z m-5272 -15
c8 -22 -9 -48 -35 -52 -16 -2 -23 3 -28 22 -3 14 -3 30 1 35 10 17 55 13 62
-5z m1643 -14 c0 -5 -4 -10 -10 -10 -5 0 -10 5 -10 10 0 6 5 10 10 10 6 0 10
-4 10 -10z m-1720 -19 c11 -22 5 -47 -14 -54 -23 -9 -29 -57 -10 -72 29 -21 0
-25 -33 -4 -25 16 -31 27 -31 50 1 17 4 27 7 22 3 -4 15 -9 26 -10 19 -1 19
-1 3 11 -18 13 -24 56 -11 69 13 14 53 6 63 -12z m5404 -67 c9 -8 16 -25 16
-37 0 -20 -2 -19 -20 8 -29 44 -26 60 4 29z m-5254 -68 c0 -32 -24 -51 -47
-38 -13 8 -19 5 -28 -11 -14 -29 -47 -33 -69 -8 -25 28 -6 64 33 60 17 -2 35
5 49 19 18 18 26 20 42 12 11 -6 20 -21 20 -34z m-1735 -106 c3 -5 -1 -10 -9
-10 -9 0 -16 5 -16 10 0 6 4 10 9 10 6 0 13 -4 16 -10z m1793 -19 c8 -4 12
-19 10 -32 -4 -33 -53 -40 -63 -9 -11 36 22 61 53 41z m-63 -51 c4 -12 2 -27
-5 -35 -9 -11 -7 -14 11 -17 29 -4 43 -42 23 -63 -14 -13 -13 -15 10 -15 30 0
40 -13 32 -46 -5 -17 -13 -24 -30 -24 -29 0 -50 24 -42 46 4 11 -1 22 -15 32
-16 11 -20 21 -15 42 4 22 1 29 -14 33 -44 11 -31 67 16 67 14 0 25 -8 29 -20z
m182 -186 c8 -22 -10 -49 -32 -49 -10 0 -22 7 -28 16 -15 24 -1 49 28 49 15 0
28 -7 32 -16z m3962 -109 c0 -20 0 -20 -14 -1 -8 11 -15 29 -15 40 0 20 0 20
15 0 8 -10 14 -28 14 -39z m-3385 24 c5 -5 7 -12 3 -16 -4 -4 -13 -1 -19 5 -7
7 -20 12 -30 12 -10 0 -18 5 -18 11 0 12 49 4 64 -12z m-456 -61 c14 -18 62
-142 62 -161 0 -17 -58 -67 -78 -67 -6 0 -28 -11 -48 -25 -49 -34 -63 -24
-109 79 -45 100 -45 100 54 151 71 36 103 42 119 23z m3897 -62 c10 -41 10
-55 2 -53 -7 1 -17 18 -23 37 l-12 35 -2 -35 c-1 -19 -5 -44 -10 -55 -8 -19
-9 -19 -9 3 -1 12 -6 22 -11 22 -6 0 -15 -10 -20 -22 -7 -20 -9 -18 -9 15 -1
52 14 77 45 77 23 0 25 3 19 28 -5 21 -4 24 5 15 7 -6 18 -36 25 -67z m-935
11 c0 -6 -9 -2 -20 8 -11 10 -20 23 -20 28 0 6 9 2 20 -8 11 -10 20 -23 20
-28z m70 -64 c13 -13 19 -23 13 -23 -14 0 -73 60 -73 74 0 6 8 2 18 -9 9 -11
28 -30 42 -42z m104 -1 c3 -5 -1 -9 -9 -9 -8 0 -12 4 -9 9 3 4 7 8 9 8 2 0 6
-4 9 -8z m832 -68 c9 -33 -30 -79 -46 -54 -10 16 -4 47 12 68 16 19 27 14 34
-14z m-81 -108 c-3 -39 -7 -81 -8 -93 -4 -48 -15 -30 -20 34 -6 76 12 173 27
146 5 -9 5 -48 1 -87z m118 69 c-3 -9 -8 -14 -10 -11 -3 3 -2 9 2 15 9 16 15
13 8 -4z m-3313 -35 c-6 -12 -22 -25 -36 -30 -22 -9 -24 -15 -20 -43 4 -25 1
-35 -14 -45 -16 -10 -20 -8 -25 7 -8 26 5 73 24 89 13 11 69 40 79 42 1 0 -2
-9 -8 -20z m2733 11 c44 -2 31 -21 -15 -22 -38 0 -40 -1 -19 -10 13 -5 33 -7
44 -3 18 6 19 3 13 -27 -4 -19 -8 -68 -9 -109 l-2 -75 -67 2 c-70 2 -148 29
-148 50 0 16 22 17 38 1 9 -9 12 -9 12 0 0 6 -8 16 -17 21 -15 9 -13 10 14 11
22 0 38 9 57 31 14 17 26 27 26 23 0 -5 5 -3 11 3 16 16 1 35 -18 24 -11 -6
-27 -2 -50 11 -18 11 -33 17 -33 12 0 -4 -9 1 -20 11 -11 10 -20 22 -20 27 0
16 43 25 109 22 36 -1 78 -3 94 -3z m-2673 -31 c0 -6 -7 -10 -15 -10 -8 0 -15
-6 -15 -12 0 -9 -4 -8 -10 2 -15 22 -12 30 8 23 15 -6 16 -5 2 12 -14 17 -14
18 8 6 12 -6 22 -16 22 -21z m2845 20 c3 -5 -2 -21 -11 -36 -15 -21 -16 -31
-6 -58 18 -48 15 -57 -25 -98 -25 -26 -46 -38 -65 -38 -15 0 -28 3 -28 8 0 4
7 52 15 107 8 55 15 106 15 113 0 15 96 17 105 2z m-3537 -25 c17 -37 15 -51
-9 -74 l-21 -19 22 -22 21 -21 -3 23 c-4 31 14 36 29 8 16 -32 3 -59 -40 -84
-45 -26 -61 -14 -62 44 0 25 -5 40 -13 40 -7 0 -17 11 -24 25 -9 19 -14 22
-29 15 -21 -12 -37 6 -20 23 17 17 105 65 122 66 9 1 21 -10 27 -24z m3749
-82 c29 -290 46 -420 58 -445 8 -16 12 -28 9 -28 -16 0 -84 66 -84 81 0 10 -4
21 -10 24 -14 8 -13 58 2 73 8 8 8 15 -2 27 -8 10 -9 15 -1 15 6 0 11 14 11
30 0 17 -4 30 -10 30 -5 0 -10 -11 -10 -24 0 -37 -17 -41 -25 -6 -7 31 -20 39
-28 18 -3 -7 -6 6 -6 28 -1 28 4 44 13 47 8 3 17 21 20 39 3 18 10 70 17 116
16 117 33 108 46 -25z m346 -5 c16 -27 36 -48 42 -48 6 0 19 -26 28 -58 9 -33
23 -65 32 -72 8 -7 15 -16 15 -21 0 -16 -60 53 -61 70 0 13 -2 14 -6 1 -17
-43 -30 -38 -43 16 -7 30 -19 63 -26 72 -10 14 -12 3 -7 -63 3 -44 2 -77 -2
-72 -5 4 -9 24 -11 45 -3 46 -27 141 -49 196 -16 38 54 -16 88 -66z m-3993
-73 c0 -8 -22 -30 -50 -47 -47 -31 -61 -48 -41 -48 6 0 13 5 16 10 11 17 54
11 65 -9 15 -29 12 -49 -10 -71 -19 -19 -19 -20 5 -46 16 -17 25 -22 25 -12 0
7 -5 19 -12 26 -8 8 -9 15 -2 22 13 13 30 -4 39 -41 5 -21 1 -31 -25 -53 -17
-14 -37 -26 -45 -26 -16 0 -38 52 -33 77 2 10 -6 26 -19 36 -13 10 -23 27 -23
38 0 11 -6 28 -12 39 -18 28 -3 48 62 88 63 37 60 36 60 17z m2930 10 c0 -3
18 -81 40 -173 42 -179 59 -305 38 -284 -7 7 -18 12 -26 12 -8 0 -27 11 -44
25 -16 13 -47 30 -70 37 -22 6 -53 25 -69 40 -22 22 -34 27 -53 22 -19 -4 -28
-2 -32 10 -6 17 -58 73 -72 78 -23 8 26 72 88 114 19 13 67 46 105 73 63 45
95 60 95 46z m820 -49 c0 -2 -7 -9 -15 -16 -12 -10 -15 -10 -15 4 0 9 7 16 15
16 8 0 15 -2 15 -4z m-545 -34 l70 -7 -3 -62 c-2 -34 -7 -84 -10 -110 -6 -43
-10 -48 -34 -51 -42 -5 -195 104 -175 125 4 3 2 12 -4 20 -6 7 -12 33 -14 57
l-2 44 51 -5 c28 -3 83 -8 121 -11z m934 -42 c18 -33 31 -66 28 -73 -2 -7 -20
21 -39 61 -42 87 -34 96 11 12z m-799 35 c0 -14 -38 -74 -44 -68 -10 11 -7 48
6 61 12 12 38 17 38 7z m524 -49 c9 -38 -45 -201 -71 -211 -21 -8 -43 13 -43
40 0 30 22 49 38 33 20 -20 36 7 37 60 3 89 5 102 19 102 8 0 17 -11 20 -24z
m218 -21 c2 -11 10 -19 16 -17 7 1 12 -4 12 -10 0 -7 3 -23 7 -36 l6 -24 -25
24 c-16 14 -27 37 -30 60 -4 38 7 40 14 3z m-3045 -27 c-3 -8 -6 -5 -6 6 -1
11 2 17 5 13 3 -3 4 -12 1 -19z m3213 -8 c0 -5 -4 -10 -9 -10 -6 0 -13 5 -16
10 -3 6 1 10 9 10 9 0 16 -4 16 -10z m38 -25 c-3 -3 -9 2 -12 12 -6 14 -5 15
5 6 7 -7 10 -15 7 -18z m17 -25 c3 -5 -1 -10 -9 -10 -9 0 -16 5 -16 10 0 6 4
10 9 10 6 0 13 -4 16 -10z m-4402 -32 c14 -25 15 -33 5 -39 -21 -14 -24 -11
-35 25 -17 55 2 63 30 14z m187 10 c0 -7 -21 -28 -45 -47 -25 -18 -45 -40 -45
-47 0 -19 -20 -18 -21 1 -1 8 -2 20 -3 26 -1 12 83 77 102 78 6 1 12 -5 12
-11z m-635 -47 c62 -28 138 -93 191 -165 48 -65 76 -140 47 -129 -7 3 -13 11
-13 17 0 7 -6 21 -14 31 -12 17 -16 18 -32 5 -16 -14 -17 -13 -10 13 6 26 5
27 -13 15 -18 -11 -19 -15 -7 -33 19 -30 40 -69 42 -80 1 -5 12 -37 24 -70 31
-85 38 -223 15 -301 -9 -32 -21 -64 -26 -71 -6 -6 -45 -19 -87 -28 -114 -24
-110 -22 -104 -50 2 -14 0 -25 -4 -25 -5 -1 -35 -2 -68 -4 -51 -3 -59 0 -64
16 -4 15 -10 18 -31 13 -14 -4 -54 -9 -88 -10 -35 -2 -68 -7 -74 -11 -7 -4 -9
-3 -6 3 4 6 -8 10 -28 11 -19 1 -35 -3 -35 -8 0 -6 -9 -10 -20 -10 -18 0 -25
11 -21 33 1 4 -3 16 -9 27 -15 28 -47 14 -60 -26 -7 -19 -16 -31 -22 -28 -15
10 -50 91 -63 148 l-11 49 -42 -41 c-28 -28 -44 -37 -49 -29 -4 7 -9 56 -11
109 -7 176 50 336 162 449 174 176 382 246 531 180z m4675 -4 c0 -16 -3 -18
-12 -9 -8 8 -15 9 -25 1 -10 -9 -13 -6 -13 13 0 21 4 25 25 20 17 -3 25 -11
25 -25z m-231 -25 c-20 -37 -58 -76 -66 -68 -2 2 8 29 24 58 20 40 33 54 45
50 15 -4 15 -7 -3 -40z m405 22 c15 -40 -4 -48 -22 -9 -9 20 -9 25 2 25 8 0
17 -7 20 -16z m-4194 -3 c0 -6 -4 -13 -10 -16 -5 -3 -10 -15 -10 -25 0 -14 -6
-19 -22 -17 -16 1 -26 -6 -36 -26 -14 -29 -32 -28 -32 2 0 22 51 77 77 84 30
8 33 7 33 -2z m-152 -72 c18 -38 35 -81 38 -93 9 -39 -13 -39 -26 -1 -6 19
-16 35 -21 35 -5 0 -9 8 -9 18 0 9 -7 26 -15 36 -11 14 -12 23 -4 33 9 10 8
13 -4 13 -10 0 -14 6 -11 15 11 26 20 17 52 -56z m4354 9 c-5 -20 -17 -24 -27
-8 -8 13 1 27 18 27 9 0 12 -7 9 -19z m-176 -25 c-10 -10 -19 5 -10 18 6 11 8
11 12 0 2 -7 1 -15 -2 -18z m-4032 1 c32 -31 8 -104 -34 -104 -43 0 -57 77
-18 104 28 20 33 20 52 0z m4226 -14 c0 -5 -5 -10 -11 -10 -5 0 -7 5 -4 10 3
6 8 10 11 10 2 0 4 -4 4 -10z m-4308 -125 c4 -21 3 -23 -13 -14 -20 10 -24 21
-12 32 12 13 21 7 25 -18z m1948 -10 c0 -13 -25 -55 -33 -55 -12 0 -46 -42
-47 -57 0 -6 -11 -25 -25 -41 -14 -17 -25 -35 -25 -41 0 -6 -4 -11 -8 -11 -11
0 -36 -51 -33 -67 1 -7 -11 -10 -34 -8 -25 2 -38 -1 -42 -11 -7 -18 -3 -23 23
-27 10 -1 24 -6 31 -10 7 -5 17 1 24 15 13 25 39 53 39 43 0 -18 -57 -85 -73
-85 -55 0 -135 57 -168 122 -21 42 -26 36 81 101 128 77 290 151 290 132z
m2274 -139 c-6 -26 -24 -37 -24 -13 0 29 13 58 22 49 5 -5 6 -21 2 -36z
m-1852 -88 c116 -139 214 -252 306 -351 34 -37 117 -136 183 -220 66 -84 127
-161 136 -172 27 -32 171 -232 182 -253 8 -16 5 -21 -27 -34 -20 -8 -73 -23
-117 -32 -43 -9 -82 -20 -85 -24 -6 -8 -16 -9 -145 -18 -49 -3 -98 -10 -107
-15 -9 -5 -26 -9 -37 -9 -11 0 -40 -6 -63 -14 -24 -7 -74 -19 -113 -26 -38 -7
-81 -17 -95 -23 -14 -6 -31 -11 -39 -13 -8 -2 -25 -5 -38 -9 -13 -3 -25 -5
-28 -5 -3 0 -19 -7 -37 -16 -32 -17 -139 -49 -198 -59 -19 -3 -40 -11 -46 -16
-9 -7 -19 -6 -33 3 -17 10 -20 19 -15 48 6 34 59 252 108 440 69 267 157 679
176 825 13 97 17 115 24 115 3 0 51 -55 108 -122z m1570 8 c2 -46 -16 -67 -31
-37 -9 16 -8 28 4 52 20 37 25 34 27 -15z m95 18 c2 -6 -5 -22 -16 -35 l-20
-24 -1 38 c0 31 3 38 17 35 9 -2 18 -8 20 -14z m-3932 -24 c0 -36 -29 -33 -33
3 -3 23 0 28 15 25 12 -2 18 -12 18 -28z m1753 0 c-7 -10 -14 -17 -17 -15 -4
4 18 35 25 35 2 0 -1 -9 -8 -20z m1997 -4 c23 9 19 -43 -4 -56 -29 -15 -40
-12 -34 9 3 10 0 28 -6 39 -8 15 -8 21 2 25 6 2 15 -2 20 -9 4 -7 14 -11 22
-8z m272 -32 c3 -9 -3 -25 -16 -37 l-21 -21 0 30 c0 44 24 62 37 28z m-487
-98 c0 -11 -26 -6 -49 11 -23 15 -23 17 -6 29 15 11 20 10 36 -10 11 -13 19
-27 19 -30z m407 -3 c2 -6 -5 -17 -17 -23 -25 -13 -25 -13 -35 18 -6 21 -4 23
21 20 15 -2 29 -8 31 -15z m-4309 -20 c-5 -25 -28 -28 -28 -4 0 12 6 21 16 21
9 0 14 -7 12 -17z m4087 -3 c-3 -5 -11 -10 -16 -10 -6 0 -7 5 -4 10 3 6 11 10
16 10 6 0 7 -4 4 -10z m-3475 -37 c0 -7 -7 -13 -15 -13 -15 0 -21 31 -8 43 8
8 23 -12 23 -30z m4509 8 c8 -5 11 -16 8 -25 -8 -19 -67 -57 -79 -50 -15 10
-8 43 14 64 24 22 36 24 57 11z m-5129 -42 c0 -22 -25 -26 -33 -5 -6 16 12 38
25 30 4 -3 8 -14 8 -25z m4081 -18 c17 -16 29 -34 25 -39 -3 -5 1 -15 9 -22
16 -14 15 -70 -2 -70 -6 0 -14 6 -17 13 -3 8 -11 5 -25 -11 l-20 -23 -15 23
c-20 30 -23 122 -6 143 16 19 13 20 51 -14z m383 3 c7 -17 -21 -84 -35 -84 -4
0 -7 22 -6 50 2 39 6 50 18 50 9 0 20 -7 23 -16z m-3824 -26 c0 -19 -2 -20
-10 -8 -13 19 -13 30 0 30 6 0 10 -10 10 -22z m3505 12 c-3 -5 -11 -10 -16
-10 -6 0 -7 5 -4 10 3 6 11 10 16 10 6 0 7 -4 4 -10z m-177 -62 c-2 -66 -23
-104 -49 -87 -8 5 -24 9 -35 9 -24 0 -35 18 -29 47 2 10 7 35 10 56 6 37 6 37
55 37 l50 0 -2 -62z m-3973 23 c1 -13 -6 -40 -15 -60 -10 -20 -25 -53 -35 -74
-9 -20 -46 -68 -81 -106 -85 -92 -199 -149 -281 -142 -7 1 -13 13 -13 27 l0
26 18 -21 c16 -20 19 -20 65 -5 26 9 47 20 47 25 0 5 -7 6 -16 2 -12 -4 -14 0
-9 20 7 25 6 26 -32 21 -42 -5 -44 -6 62 40 27 12 76 47 110 81 33 32 64 58
68 57 5 -1 5 3 1 9 -4 7 8 25 28 43 21 19 34 40 32 51 -4 27 5 37 29 33 13 -2
21 -11 22 -27z m-893 -33 c-15 -15 -26 -4 -18 18 5 13 9 15 18 6 9 -9 9 -15 0
-24z m5318 -33 c13 -8 1 -35 -16 -35 -7 0 -25 -17 -39 -37 l-25 -38 -12 32
c-15 39 -28 37 -131 -14 -69 -35 -91 -38 -62 -10 8 9 15 27 15 41 0 14 5 28
10 31 6 3 10 2 10 -4 0 -12 68 -12 75 0 3 4 22 10 43 14 26 4 48 18 72 45 l35
39 8 -29 c4 -16 12 -32 17 -35z m134 -3 c-6 -4 -14 -14 -17 -22 -4 -10 -6 -8
-6 7 -1 12 5 23 12 26 16 6 24 -2 11 -11z m-3940 -38 c8 -22 -4 -40 -15 -23
-11 18 -11 39 0 39 5 0 12 -7 15 -16z m3186 -44 c3 -1 7 -2 11 -2 3 0 11 -8
18 -20 10 -16 10 -19 -1 -12 -10 6 -10 4 1 -9 8 -10 12 -20 9 -22 -7 -8 -38 6
-38 16 0 4 -7 6 -15 3 -10 -4 -15 0 -15 16 0 11 -4 18 -10 15 -5 -3 -7 0 -4 8
4 13 22 15 44 7z m631 -27 c13 -16 12 -17 -3 -4 -10 7 -18 15 -18 17 0 8 8 3
21 -13z m-133 -40 c-2 -12 -13 -18 -29 -19 -15 -1 -34 -4 -43 -7 -27 -11 -18
11 12 26 39 21 64 21 60 0z m-104 -38 c-6 -16 -24 -21 -24 -7 0 11 11 22 21
22 5 0 6 -7 3 -15z m-7718 -5 c5 -5 63 -12 129 -14 156 -7 277 -21 345 -40 30
-9 66 -16 80 -16 38 0 160 -79 183 -118 26 -45 10 -64 -32 -39 -16 9 -60 21
-97 26 -68 10 -69 10 -90 -16 -19 -24 -27 -27 -78 -24 -38 2 -65 -3 -81 -13
-24 -16 -72 -9 -100 14 -9 8 -15 8 -20 1 -4 -7 -14 -6 -29 4 -21 14 -25 13
-47 -6 -14 -12 -33 -19 -47 -16 -12 2 -25 0 -28 -4 -8 -13 -84 -11 -84 2 0 6
-8 8 -19 4 -14 -4 -27 4 -49 31 -36 43 -45 88 -27 129 7 17 19 47 26 68 13 37
42 50 65 27z m4297 -87 c28 -79 32 -112 18 -148 -7 -18 -11 -15 -30 23 -23 44
-13 57 14 20 l17 -23 -7 25 c-4 14 -12 27 -16 28 -5 2 -7 8 -4 13 6 9 -38 59
-52 59 -4 0 -2 -5 5 -12 7 -7 12 -17 12 -22 0 -6 -7 -2 -15 8 -18 24 -20 60
-3 50 7 -4 8 -3 4 4 -7 12 10 52 22 52 4 0 20 -35 35 -77z m-1123 28 c0 -5 -9
-11 -20 -14 -11 -3 -20 -1 -20 3 0 5 8 11 18 13 9 3 18 5 20 6 1 0 2 -3 2 -8z
m4820 -25 c0 -3 -4 -8 -10 -11 -5 -3 -10 -1 -10 4 0 6 5 11 10 11 6 0 10 -2
10 -4z m-3308 -131 c-7 -95 -8 -100 -29 -101 -18 -1 -23 4 -23 22 0 12 5 26
11 30 8 4 9 0 4 -15 -4 -12 -2 -21 4 -21 6 0 11 6 12 13 0 6 3 39 5 72 4 62
12 110 19 104 2 -2 0 -49 -3 -104z m-24 -207 c-2 -31 -8 -44 -20 -46 -13 -3
-18 3 -17 20 0 13 3 17 6 10 7 -17 23 -5 23 19 0 13 -6 19 -16 17 -10 -2 -19
3 -21 10 -3 7 5 12 22 12 25 0 26 -2 23 -42z m1 -84 c2 -2 0 -19 -3 -39 -6
-32 -10 -36 -34 -33 -24 3 -27 6 -24 38 2 19 6 39 9 43 4 7 41 1 52 -9z m-1
-94 c6 0 12 -7 12 -15 0 -10 -10 -15 -29 -15 -16 0 -36 -3 -45 -6 -10 -4 -16
-1 -16 8 0 22 23 40 45 34 11 -3 26 -6 33 -6z m-20 -92 c2 -22 -1 -38 -7 -38
-6 0 -11 11 -11 24 0 16 -7 26 -21 29 -27 7 -14 29 14 25 17 -2 23 -11 25 -40z"/>
<path d="M6492 7301 c-88 -29 -95 -41 -26 -41 44 0 64 -14 46 -32 -7 -7 14
-23 64 -49 76 -41 94 -46 94 -29 0 6 -19 19 -43 29 -24 10 -51 26 -60 35 -15
16 -15 20 3 66 11 28 16 50 12 49 -4 0 -44 -13 -90 -28z"/>
<path d="M6533 7133 c9 -2 23 -2 30 0 6 3 -1 5 -18 5 -16 0 -22 -2 -12 -5z"/>
<path d="M6681 6959 c-121 -37 -288 -216 -376 -402 -24 -52 -53 -151 -106
-357 -27 -108 -31 -102 59 -94 84 7 94 10 72 24 -9 6 -10 10 -3 10 6 0 14 8
17 18 4 11 15 18 29 18 17 -1 23 5 25 25 2 14 -4 31 -12 39 -22 17 -20 37 4
43 23 6 27 27 5 27 -34 0 -7 74 32 87 41 13 62 6 55 -19 -3 -11 -1 -19 4 -17
73 34 77 43 39 86 -14 15 -30 34 -36 41 -7 9 -24 12 -43 9 -17 -2 -39 0 -49 5
-17 9 -16 10 3 35 11 15 35 36 53 48 37 26 144 65 175 65 11 0 24 5 27 10 11
18 43 11 74 -16 17 -14 35 -23 41 -19 19 12 122 -14 141 -36 10 -12 16 -26 13
-30 -3 -5 1 -9 9 -9 23 0 65 -56 80 -107 17 -56 23 -46 32 57 4 41 11 78 17
81 6 4 0 16 -15 29 -14 12 -31 36 -38 54 -29 71 -80 175 -89 181 -5 3 -10 17
-10 30 0 13 -5 27 -11 30 -6 4 -8 13 -5 20 3 8 -2 19 -10 26 -19 16 -159 21
-203 8z m-306 -499 c-4 -6 -2 -17 5 -25 12 -15 -3 -31 -20 -20 -11 7 -13 38
-3 48 10 11 25 8 18 -3z"/>
<path d="M6550 6485 c0 -14 5 -25 12 -25 6 0 8 3 5 7 -4 3 0 15 10 25 15 17
15 18 -5 18 -17 0 -22 -6 -22 -25z"/>
<path d="M6676 5615 c-15 -12 -24 -25 -19 -28 5 -3 22 5 37 18 35 30 20 40
-18 10z"/>
<path d="M5180 5039 c0 -24 23 -21 28 4 2 10 -3 17 -12 17 -10 0 -16 -9 -16
-21z"/>
<path d="M5420 5034 c0 -8 5 -12 10 -9 6 3 10 10 10 16 0 5 -4 9 -10 9 -5 0
-10 -7 -10 -16z"/>
<path d="M5050 5020 c0 -5 5 -10 10 -10 6 0 10 5 10 10 0 6 -4 10 -10 10 -5 0
-10 -4 -10 -10z"/>
<path d="M5048 4893 c7 -3 16 -2 19 1 4 3 -2 6 -13 5 -11 0 -14 -3 -6 -6z"/>
<path d="M5400 4629 c0 -5 5 -7 10 -4 6 3 10 8 10 11 0 2 -4 4 -10 4 -5 0 -10
-5 -10 -11z"/>
<path d="M5298 4483 c7 -3 16 -2 19 1 4 3 -2 6 -13 5 -11 0 -14 -3 -6 -6z"/>
<path d="M4950 4302 c0 -13 35 -42 50 -42 9 0 5 9 -10 25 -24 25 -40 32 -40
17z"/>
<path d="M5136 4135 c7 -16 64 -21 64 -6 0 11 -25 21 -51 21 -12 0 -16 -5 -13
-15z"/>
<path d="M7233 4086 c-10 -11 1 -23 55 -60 262 -180 308 -225 300 -292 -2 -19
-3 -34 -1 -34 1 0 9 13 18 30 28 53 9 195 -26 195 -37 1 -46 46 -13 59 12 4
12 10 4 26 -10 19 -12 19 -35 4 -21 -14 -24 -14 -34 3 -6 10 -11 13 -11 6 0
-6 5 -15 10 -18 15 -9 12 -25 -5 -25 -22 0 -160 67 -175 84 -7 9 -23 16 -36
16 -13 0 -24 5 -24 10 0 14 -13 12 -27 -4z"/>
<path d="M5423 4033 c-7 -15 -11 -29 -8 -32 7 -6 34 31 35 47 0 21 -14 13 -27
-15z"/>
<path d="M5367 3980 c-49 -30 -90 -83 -48 -60 11 5 31 10 46 10 18 0 29 8 37
25 16 35 0 47 -35 25z"/>
<path d="M7560 3670 c-6 -11 -22 -25 -36 -30 -13 -5 -24 -16 -24 -24 0 -7 -13
-20 -30 -28 -29 -14 -163 -158 -155 -166 11 -12 120 88 120 110 0 7 14 19 30
27 17 7 38 21 49 30 24 20 69 91 63 98 -3 3 -11 -5 -17 -17z"/>
<path d="M5816 2991 c-8 -9 -18 -29 -22 -45 -9 -36 12 -51 43 -30 28 18 29 14
1 -31 -22 -38 -50 -140 -41 -149 3 -3 14 -1 23 4 21 11 40 60 40 101 0 16 5
29 10 29 6 0 10 -4 10 -9 0 -5 13 -23 29 -40 29 -31 31 -31 58 -17 15 8 38 25
50 38 l22 23 -42 57 c-57 77 -73 86 -99 53 -19 -24 -21 -25 -33 -8 -7 9 -11
22 -8 28 6 17 -25 14 -41 -4z"/>
<path d="M5283 2876 c0 -22 1 -23 14 -11 8 8 11 19 8 25 -11 18 -22 11 -22
-14z"/>
<path d="M6078 2783 c-10 -2 -18 -9 -18 -14 0 -5 -9 -9 -20 -9 -12 0 -32 -11
-46 -25 -14 -14 -29 -23 -34 -20 -5 3 -11 1 -15 -5 -9 -15 -25 -12 -25 6 0 8
-4 12 -10 9 -5 -3 -11 -30 -11 -58 -1 -29 -4 -40 -6 -24 -2 15 -9 27 -15 27
-6 0 -7 -15 -3 -39 5 -33 3 -41 -13 -50 -17 -9 -20 -6 -26 29 l-6 38 -32 -14
c-63 -29 -63 -29 -60 -75 2 -24 7 -48 11 -52 11 -11 61 13 61 30 0 11 -4 11
-20 3 -26 -14 -40 -5 -40 26 0 17 8 27 24 34 13 5 28 15 33 22 5 8 10 -2 13
-32 5 -43 6 -45 35 -42 l30 2 -25 -19 c-31 -25 -19 -39 15 -17 16 11 25 26 25
43 0 14 3 24 6 20 9 -8 64 21 64 33 0 6 8 10 17 10 9 0 34 8 54 18 36 16 39
20 39 59 0 32 5 45 20 53 11 6 20 17 20 25 0 15 -10 17 -42 8z m-128 -138 c0
-16 -6 -25 -15 -25 -15 0 -21 31 -8 43 13 14 23 6 23 -18z"/>
<path d="M6052 2600 c-12 -5 -25 -16 -28 -25 -3 -8 -10 -12 -15 -10 -7 5 -49
-14 -104 -47 -11 -7 -30 -18 -43 -26 -28 -16 -20 -37 9 -22 27 15 24 0 -6 -25
-18 -15 -23 -26 -19 -42 8 -28 18 -29 60 -2 31 19 34 25 34 66 0 26 3 43 7 39
8 -7 9 -12 11 -54 3 -41 22 -12 22 34 0 24 5 44 10 44 6 0 10 -16 10 -35 0
-35 26 -78 42 -69 4 3 8 14 8 24 0 11 12 25 28 32 25 12 27 18 27 68 0 59 -9
67 -53 50z m26 -57 c-4 -34 -28 -43 -28 -10 0 25 7 37 22 37 5 0 8 -12 6 -27z
m-193 -123 c-3 -5 -11 -10 -16 -10 -6 0 -7 5 -4 10 3 6 11 10 16 10 6 0 7 -4
4 -10z"/>
<path d="M5798 2454 c-30 -16 -31 -19 -28 -74 3 -48 7 -52 41 -35 31 17 41 42
12 30 -33 -12 -38 -10 -41 21 -2 24 2 33 23 42 14 6 25 16 25 22 0 12 1 12
-32 -6z"/>
<path d="M7530 2200 c37 -12 122 -12 115 0 -3 6 -36 10 -73 9 -49 -1 -60 -3
-42 -9z"/>
<path d="M8200 2167 c0 -12 6 -17 17 -15 26 5 28 34 3 34 -13 0 -20 -7 -20
-19z"/>
<path d="M7592 2108 c6 -18 28 -21 28 -4 0 9 -7 16 -16 16 -9 0 -14 -5 -12
-12z"/>
<path d="M3100 5450 c0 -5 5 -10 10 -10 6 0 10 5 10 10 0 6 -4 10 -10 10 -5 0
-10 -4 -10 -10z"/>
<path d="M2970 5370 c-9 -16 -8 -18 5 -14 8 4 15 12 15 20 0 20 -7 17 -20 -6z"/>
<path d="M3264 4536 c-18 -14 -18 -15 -1 -22 22 -8 46 11 31 26 -7 7 -17 5
-30 -4z"/>
<path d="M3290 4421 c0 -5 5 -13 10 -16 6 -3 10 -2 10 4 0 5 -4 13 -10 16 -5
3 -10 2 -10 -4z"/>
<path d="M3980 4541 c0 -6 4 -12 8 -15 5 -3 9 1 9 9 0 8 -4 15 -9 15 -4 0 -8
-4 -8 -9z"/>
<path d="M3860 4429 c0 -5 5 -7 10 -4 6 3 10 8 10 11 0 2 -4 4 -10 4 -5 0 -10
-5 -10 -11z"/>
<path d="M4098 4303 c7 -3 16 -2 19 1 4 3 -2 6 -13 5 -11 0 -14 -3 -6 -6z"/>
<path d="M4060 4265 c0 -8 7 -15 16 -15 14 0 14 3 4 15 -7 8 -14 15 -16 15 -2
0 -4 -7 -4 -15z"/>
<path d="M4040 4226 c0 -2 7 -7 16 -10 8 -3 12 -2 9 4 -6 10 -25 14 -25 6z"/>
<path d="M4080 4109 c0 -5 5 -7 10 -4 6 3 10 8 10 11 0 2 -4 4 -10 4 -5 0 -10
-5 -10 -11z"/>
<path d="M1807 5014 c-8 -8 3 -34 14 -34 11 0 12 27 0 34 -4 3 -11 3 -14 0z"/>
<path d="M1570 4600 c0 -13 5 -20 13 -17 6 2 12 10 12 17 0 7 -6 15 -12 18 -8
2 -13 -5 -13 -18z"/>
<path d="M2325 4860 c3 -5 8 -10 11 -10 2 0 4 5 4 10 0 6 -5 10 -11 10 -5 0
-7 -4 -4 -10z"/>
<path d="M6510 4740 c0 -11 5 -20 10 -20 6 0 10 9 10 20 0 11 -4 20 -10 20 -5
0 -10 -9 -10 -20z"/>
<path d="M6600 4740 c0 -5 5 -10 11 -10 5 0 7 5 4 10 -3 6 -8 10 -11 10 -2 0
-4 -4 -4 -10z"/>
<path d="M1585 4348 c-22 -5 -47 -10 -56 -11 -23 -2 -45 -27 -24 -27 18 0 20
-21 4 -37 -9 -9 -6 -13 12 -17 33 -6 101 -3 89 4 -13 8 44 70 64 70 9 0 16 7
16 15 0 17 -40 18 -105 3z m15 -68 c0 -5 -4 -10 -10 -10 -5 0 -10 5 -10 10 0
6 5 10 10 10 6 0 10 -4 10 -10z"/>
<path d="M1654 4210 c0 -13 9 -23 24 -27 30 -7 36 0 22 26 -14 27 -46 28 -46
1z"/>
<path d="M2240 4050 c0 -5 5 -10 10 -10 6 0 10 5 10 10 0 6 -4 10 -10 10 -5 0
-10 -4 -10 -10z"/>
<path d="M3405 4204 c-13 -13 -14 -19 -4 -25 17 -10 49 7 49 26 0 20 -25 19
-45 -1z"/>
<path d="M3896 3111 c-4 -5 3 -7 14 -4 23 6 26 13 6 13 -8 0 -17 -4 -20 -9z"/>
<path d="M3948 3093 c7 -3 16 -2 19 1 4 3 -2 6 -13 5 -11 0 -14 -3 -6 -6z"/>
<path d="M3945 3060 c-3 -6 1 -7 9 -4 18 7 21 14 7 14 -6 0 -13 -4 -16 -10z"/>
<path d="M3998 2952 c-20 -4 -31 -29 -17 -38 12 -7 43 20 38 33 -2 5 -11 7
-21 5z"/>
<path d="M4010 2826 c0 -9 5 -16 10 -16 6 0 10 4 10 9 0 6 -4 13 -10 16 -5 3
-10 -1 -10 -9z"/>
<path d="M7779 2731 c-6 -16 12 -61 24 -61 10 0 9 14 -2 26 -5 5 -11 18 -13
29 -3 14 -5 16 -9 6z"/>
<path d="M4084 2696 c-15 -12 -16 -17 -7 -27 10 -10 15 -9 28 1 16 13 21 40 7
40 -5 0 -17 -6 -28 -14z"/>
<path d="M4110 2576 c0 -9 5 -16 10 -16 6 0 10 4 10 9 0 6 -4 13 -10 16 -5 3
-10 -1 -10 -9z"/>
<path d="M3520 2456 c0 -7 11 -16 25 -18 19 -4 25 -1 25 13 0 14 -7 19 -25 19
-15 0 -25 -6 -25 -14z"/>
<path d="M3397 2445 c-4 -8 -2 -17 2 -20 5 -2 11 4 14 15 6 23 -8 27 -16 5z"/>
<path d="M3588 2453 c7 -3 16 -2 19 1 4 3 -2 6 -13 5 -11 0 -14 -3 -6 -6z"/>
<path d="M3615 2430 c-3 -5 -1 -10 4 -10 6 0 11 5 11 10 0 6 -2 10 -4 10 -3 0
-8 -4 -11 -10z"/>
<path d="M3253 2391 c-20 -17 -21 -20 -7 -32 8 -7 14 -8 13 -3 -1 5 -1 16 0
24 1 13 2 13 11 0 5 -8 13 -11 17 -6 4 5 2 11 -5 13 -6 3 -10 9 -6 14 8 13 2
11 -23 -10z"/>
<path d="M3373 2371 c-92 -32 -180 -100 -250 -195 -24 -32 -43 -62 -43 -67 0
-9 10 -8 190 21 l105 16 -2 55 c-3 48 0 56 23 73 29 20 49 11 42 -20 -3 -13
-11 -18 -27 -16 -22 2 -23 0 -17 -40 4 -23 8 -43 9 -44 4 -4 322 66 342 74 18
8 15 14 -37 65 -95 92 -214 120 -335 78z"/>
<path d="M3675 2369 c-4 -5 1 -9 9 -9 9 0 16 -7 16 -15 0 -8 4 -15 9 -15 5 0
11 -10 15 -22 4 -17 8 -20 17 -11 7 7 8 19 4 30 -5 10 -8 21 -7 25 2 11 -57
28 -63 17z"/>
<path d="M3205 2350 c3 -5 8 -10 11 -10 2 0 4 5 4 10 0 6 -5 10 -11 10 -5 0
-7 -4 -4 -10z"/>
<path d="M3115 2270 c-18 -8 -17 -9 8 -9 16 -1 26 3 22 9 -3 6 -7 10 -8 9 -1
0 -11 -4 -22 -9z"/>
<path d="M3098 2242 c-19 -4 -24 -17 -9 -26 5 -3 14 1 21 9 15 18 12 23 -12
17z"/>
<path d="M3045 2180 c3 -5 14 -10 23 -10 15 0 15 2 2 10 -20 13 -33 13 -25 0z"/>
<path d="M3025 2139 c-4 -6 -3 -15 3 -21 6 -6 11 -4 15 6 7 18 -9 31 -18 15z"/>
<path d="M3259 2065 c-20 -11 -34 -25 -32 -31 2 -6 -4 -14 -13 -18 -11 -4 -15
-2 -11 8 4 10 1 13 -9 9 -21 -8 -17 -41 6 -55 20 -13 28 -48 11 -48 -6 0 -11
-14 -13 -32 -3 -27 -8 -33 -43 -42 -30 -9 -41 -17 -43 -35 -4 -22 -3 -23 19
-7 29 20 65 21 72 2 6 -14 30 -16 43 -3 4 3 1 13 -6 22 -19 23 -4 48 25 42 21
-3 26 0 31 22 10 46 12 48 43 54 18 4 31 13 31 22 0 8 5 15 10 15 6 0 10 11
10 25 0 16 -6 25 -15 25 -18 0 -20 17 -4 22 7 2 -8 8 -32 14 -38 8 -49 7 -80
-11z m86 -4 c8 -14 -13 -24 -33 -16 -14 5 -14 7 -2 15 19 12 27 12 35 1z m-60
-11 c3 -5 2 -10 -4 -10 -5 0 -18 -3 -28 -7 -16 -6 -16 -5 -4 10 15 19 27 22
36 7z"/>
<path d="M2992 2068 c-7 -7 -12 -20 -12 -29 0 -19 19 -37 21 -20 3 26 4 30 12
37 9 10 9 24 -1 24 -4 0 -13 -5 -20 -12z"/>
<path d="M2985 1990 c-16 -7 -17 -9 -3 -9 9 -1 20 4 23 9 7 11 7 11 -20 0z"/>
<path d="M2956 1953 c-10 -10 5 -23 25 -23 12 0 19 5 17 12 -4 12 -33 20 -42
11z"/>
<path d="M3120 1935 c0 -8 9 -15 20 -15 11 0 20 7 20 15 0 8 -9 15 -20 15 -11
0 -20 -7 -20 -15z"/>
<path d="M3337 1925 c-12 -9 -15 -15 -7 -20 6 -4 15 -18 20 -31 13 -34 34 -31
27 3 -3 15 -1 35 3 43 11 20 -18 24 -43 5z"/>
<path d="M3130 1900 c-13 -8 -13 -10 2 -10 9 0 20 5 23 10 8 13 -5 13 -25 0z"/>
<path d="M3409 1884 c-11 -14 -10 -15 11 -12 13 1 25 9 28 16 5 17 -23 15 -39
-4z"/>
<path d="M3430 1846 c0 -8 5 -18 10 -21 6 -3 10 1 10 9 0 8 -4 18 -10 21 -5 3
-10 -1 -10 -9z"/>
<path d="M3275 1830 c-9 -27 3 -60 21 -60 8 0 14 -7 14 -15 0 -11 7 -14 25
-10 14 3 36 7 50 10 35 8 31 26 -13 55 -20 14 -39 27 -42 30 -14 14 -49 8 -55
-10z"/>
<path d="M3138 1791 c-28 -27 -37 -61 -18 -61 6 0 10 5 10 11 0 6 10 18 21 28
12 9 20 24 18 33 -3 14 -9 12 -31 -11z"/>
<path d="M3208 1731 c-4 -14 -2 -31 4 -38 15 -18 58 -17 58 2 0 8 -4 15 -10
15 -5 0 -10 8 -11 18 0 13 -2 14 -6 2 -14 -42 -17 -43 -22 -10 -6 33 -7 33
-13 11z"/>
<path d="M3333 1728 c-48 -9 -65 -23 -48 -40 3 -3 29 0 58 6 35 8 53 17 55 29
2 9 0 16 -5 16 -4 -1 -32 -6 -60 -11z"/>
<path d="M3435 1730 c-3 -5 -1 -10 4 -10 6 0 11 5 11 10 0 6 -2 10 -4 10 -3 0
-8 -4 -11 -10z"/>
<path d="M3500 1660 c0 -5 7 -10 15 -10 8 0 15 5 15 10 0 6 -7 10 -15 10 -8 0
-15 -4 -15 -10z"/>
<path d="M4210 2375 c-20 -24 2 -41 24 -20 16 16 14 35 -3 35 -5 0 -14 -7 -21
-15z"/>
<path d="M3860 1709 c0 -5 5 -7 10 -4 6 3 10 8 10 11 0 2 -4 4 -10 4 -5 0 -10
-5 -10 -11z"/>
<path d="M3705 1537 c-11 -7 -22 -14 -25 -17 -3 -3 -20 -16 -38 -29 -28 -20
-31 -25 -20 -39 7 -8 12 -18 11 -21 -6 -13 14 -5 55 23 31 21 41 34 37 47 -5
14 -1 16 15 12 22 -6 26 7 8 25 -14 14 -17 14 -43 -1z"/>
<path d="M8967 6497 c-4 -10 -7 -26 -7 -35 1 -15 2 -15 11 1 6 10 9 25 7 35
-3 16 -4 15 -11 -1z"/>
<path d="M9086 6421 c-4 -5 -3 -16 0 -25 4 -12 0 -16 -16 -16 -11 0 -18 -4
-15 -10 3 -5 15 -10 26 -10 15 0 19 7 19 35 0 35 -4 43 -14 26z"/>
<path d="M8670 6152 c0 -6 39 -37 86 -69 47 -32 93 -63 102 -70 28 -20 43 0
49 64 5 57 4 60 -18 67 -46 13 -219 20 -219 8z"/>
<path d="M8589 5817 c6 -8 8 -17 4 -20 -3 -4 6 -7 20 -7 26 0 26 1 10 20 -10
11 -24 20 -31 20 -11 0 -12 -3 -3 -13z"/>
<path d="M8830 5787 c0 -7 9 -18 20 -25 20 -12 25 -6 14 22 -7 19 -34 21 -34
3z"/>
<path d="M8600 5776 c0 -2 8 -10 17 -17 9 -8 14 -9 10 -2 -4 6 -1 14 5 16 7 3
3 6 -9 6 -13 1 -23 -1 -23 -3z"/>
<path d="M8995 4578 c-7 -16 -7 -30 2 -48 7 -14 15 -41 18 -60 3 -21 21 -53
45 -80 l40 -45 0 98 c0 105 -6 119 -63 145 -35 15 -30 16 -42 -10z"/>
</g>
</svg>
